<svg width="56" height="56" viewBox="0 0 56 56" fill="none" xmlns="http://www.w3.org/2000/svg">
<rect width="56" height="56" rx="28" fill="#FFEFEC"/>
<path d="M24.4187 29.1365C25.0394 29.7571 25.8655 30.0968 26.7419 30.0968C27.6184 30.0968 28.4445 29.7571 29.0652 29.1365L33.0868 25.1148C33.3258 24.8758 33.4558 24.5613 33.4558 24.2258C33.4558 23.8903 33.3258 23.5758 33.0868 23.3368C32.6129 22.8629 31.7826 22.8629 31.3087 23.3368L27.2871 27.3584C27.1487 27.4968 26.9516 27.5765 26.7461 27.5765C26.5406 27.5765 26.3435 27.4968 26.2052 27.3542L24.7039 25.8487C24.4648 25.6097 24.1503 25.4797 23.8148 25.4797C23.4794 25.4797 23.1648 25.6097 22.9258 25.8487C22.6868 26.0877 22.5568 26.4023 22.5568 26.7377C22.5568 27.0732 22.6868 27.3877 22.9258 27.6268L24.4271 29.1323L24.4187 29.1365Z" fill="#FE5D38"/>
<path d="M19.6129 37.2258H22.5903L25.2071 39.8426C25.9535 40.589 26.9432 41 28 41C29.0568 41 30.0465 40.589 30.7929 39.8426L33.4097 37.2258H36.3871C38.9326 37.2258 41 35.1584 41 32.6129V19.6129C41 17.0674 38.9326 15 36.3871 15H19.6129C17.0674 15 15 17.0674 15 19.6129V32.6129C15 35.1584 17.0674 37.2258 19.6129 37.2258ZM17.5161 19.6129C17.5161 18.4555 18.4555 17.5161 19.6129 17.5161H36.3871C37.5445 17.5161 38.4839 18.4555 38.4839 19.6129V32.6129C38.4839 33.7703 37.5445 34.7097 36.3871 34.7097H33.2377C32.6758 34.7097 32.1516 34.9277 31.7532 35.3219L29.0106 38.0645C28.7423 38.3329 28.3816 38.4839 28 38.4839C27.6184 38.4839 27.2577 38.3329 26.9894 38.0645L24.2468 35.3219C23.8526 34.9277 23.3242 34.7097 22.7623 34.7097H19.6129C18.4555 34.7097 17.5161 33.7703 17.5161 32.6129V19.6129Z" fill="#FE5D38"/>
</svg>
