<svg width="56" height="56" viewBox="0 0 56 56" fill="none" xmlns="http://www.w3.org/2000/svg">
<rect width="56" height="56" rx="28" fill="#FFEFEC"/>
<path d="M33.7581 15.4763C29.9464 14.8412 26.0559 14.8412 22.2442 15.4763C20.5517 15.7586 18.9896 16.5622 17.7759 17.7752C16.5622 18.9881 15.7576 20.5497 15.4743 22.242C14.8393 26.0537 14.8393 29.9442 15.4743 33.7559C15.756 35.4487 16.5594 37.0111 17.7725 38.2249C18.9855 39.4387 20.5475 40.2432 22.24 40.5259C26.052 41.158 29.942 41.158 33.7539 40.5259C35.4464 40.2436 37.0086 39.44 38.2222 38.227C39.4359 37.0141 40.2406 35.4525 40.5239 33.7601C40.8412 31.8569 41.0011 29.9307 41.002 28.0011C41.0011 26.0715 40.8412 24.1453 40.5239 22.242C40.2414 20.5501 39.4376 18.9885 38.2246 17.7756C37.0116 16.5626 35.4501 15.7588 33.7581 15.4763ZM38.0449 33.3449C37.8494 34.5211 37.2909 35.6067 36.4478 36.4498C35.6047 37.293 34.5191 37.8514 33.3429 38.0469C31.5767 38.3402 29.7894 38.4875 27.9991 38.4873C26.2087 38.4875 24.4214 38.3402 22.6553 38.0469C21.4791 37.8514 20.3935 37.293 19.5503 36.4498C18.7072 35.6067 18.1488 34.5211 17.9533 33.3449C17.3635 29.8068 17.3635 26.1954 17.9533 22.6573C18.1488 21.4811 18.7072 20.3955 19.5503 19.5524C20.3935 18.7092 21.4791 18.1508 22.6553 17.9553C26.1936 17.3683 29.8045 17.3683 33.3429 17.9553C34.5191 18.1508 35.6047 18.7092 36.4478 19.5524C37.2909 20.3955 37.8494 21.4811 38.0449 22.6573C38.3383 24.4234 38.4856 26.2108 38.4853 28.0011C38.4856 29.7914 38.3383 31.5787 38.0449 33.3449Z" fill="#FE5D38"/>
<path d="M23.8046 26.7427C24.4996 26.7427 25.0629 26.1794 25.0629 25.4844C25.0629 24.7894 24.4996 24.226 23.8046 24.226C23.1096 24.226 22.5462 24.7894 22.5462 25.4844C22.5462 26.1794 23.1096 26.7427 23.8046 26.7427Z" fill="#FE5D38"/>
<path d="M32.1936 26.7427C32.8885 26.7427 33.4519 26.1794 33.4519 25.4844C33.4519 24.7894 32.8885 24.226 32.1936 24.226C31.4986 24.226 30.9352 24.7894 30.9352 25.4844C30.9352 26.1794 31.4986 26.7427 32.1936 26.7427Z" fill="#FE5D38"/>
<path d="M31.2121 29.8886C30.9345 29.7034 30.5947 29.6361 30.2675 29.7014C29.9403 29.7667 29.6524 29.9592 29.4672 30.2368C29.3245 30.4522 29.1307 30.6289 28.903 30.7511C28.6754 30.8733 28.421 30.9373 28.1627 30.9372H27.8313C27.5733 30.9377 27.3192 30.8744 27.0916 30.7529C26.864 30.6315 26.67 30.4556 26.5268 30.241C26.4351 30.1032 26.3172 29.985 26.1797 29.8928C26.0423 29.8007 25.8881 29.7365 25.7258 29.704C25.5636 29.6715 25.3966 29.6712 25.2343 29.7033C25.0719 29.7353 24.9175 29.799 24.7798 29.8907C24.6421 29.9824 24.5238 30.1004 24.4317 30.2378C24.3395 30.3752 24.2754 30.5295 24.2429 30.6917C24.2103 30.8539 24.2101 31.021 24.2421 31.1833C24.2742 31.3456 24.3379 31.5 24.4296 31.6377C24.8031 32.1982 25.3096 32.6575 25.904 32.9744C26.4983 33.2914 27.1619 33.4561 27.8355 33.4539H28.1669C28.8394 33.4543 29.5016 33.2882 30.0943 32.9706C30.6871 32.653 31.1922 32.1936 31.5644 31.6335C31.7496 31.356 31.8169 31.0162 31.7516 30.689C31.6864 30.3618 31.4938 30.0739 31.2163 29.8886H31.2121Z" fill="#FE5D38"/>
</svg>
