<svg width="56" height="56" viewBox="0 0 56 56" fill="none" xmlns="http://www.w3.org/2000/svg">
<rect width="56" height="56" rx="28" fill="#FFEFEC"/>
<path d="M38.115 35.209C38.7823 34.4284 40.1716 32.8125 40.1716 30.3446V20.6661C40.1716 18.8991 39.0509 17.3126 37.3889 16.7124C35.6051 16.0745 32.0082 15 28 15C23.9917 15 20.3948 16.0745 18.6069 16.7166C16.9448 17.3126 15.8284 18.8991 15.8284 20.6703V30.3446C15.8284 32.8335 17.2344 34.4494 17.9899 35.3182C18.8041 36.2793 19.7275 37.1397 21.8386 38.4828C22.6403 38.9948 23.7105 39.6034 25.0242 40.2917C26.8374 41.2361 29.1584 41.2361 30.9631 40.2917C32.2558 39.616 33.3303 39.0074 34.1529 38.4828C36.2515 37.1523 37.1622 36.3045 38.1108 35.2007L38.115 35.209ZM29.8047 38.0631C29.2591 38.3485 28.6337 38.4912 28.0084 38.4912C27.383 38.4912 26.7534 38.3485 26.1994 38.0631C24.9235 37.3915 23.9414 36.8375 23.1943 36.3591C21.3392 35.1797 20.5711 34.4662 19.803 33.5638C19.228 32.9048 18.3508 31.9017 18.3508 30.3446V20.6703C18.3508 19.961 18.7957 19.3272 19.4547 19.088C21.0873 18.5004 24.3695 17.5183 28 17.5183C31.6305 17.5183 34.9042 18.4962 36.5411 19.0838C37.2042 19.3272 37.6533 19.961 37.6533 20.6661V30.3446C37.6533 31.8807 36.7845 32.8922 36.0836 33.7107C35.3869 34.5207 34.6314 35.2132 32.8098 36.3633C32.0418 36.8543 31.0303 37.4251 29.8047 38.0631Z" fill="#FE5D38"/>
<path d="M26.745 30.5335C25.8678 30.5335 25.041 30.1935 24.4198 29.5723L22.9173 28.0656C22.4262 27.5745 22.4262 26.7771 22.9173 26.286C23.4083 25.7949 24.2058 25.7949 24.6968 26.286L26.1994 27.7886C26.489 28.0782 27.0053 28.074 27.2739 27.8012L31.3115 23.7636C31.8025 23.2725 32.6 23.2725 33.091 23.7636C33.5821 24.2546 33.5821 25.0521 33.091 25.5431L29.0576 29.5723C28.4574 30.1767 27.6138 30.5293 26.7408 30.5293L26.745 30.5335Z" fill="#FE5D38"/>
</svg>
