<svg width="56" height="56" viewBox="0 0 56 56" fill="none" xmlns="http://www.w3.org/2000/svg">
<rect width="56" height="56" rx="28" fill="#FFEFEC"/>
<path d="M32.194 25.0645C32.5277 25.0645 32.8477 24.932 33.0836 24.696C33.3195 24.4601 33.4521 24.1401 33.4521 23.8065V23.1061C33.4532 22.7361 33.6007 22.3816 33.8623 22.1199C34.124 21.8583 34.4785 21.7108 34.8485 21.7097H35.4063C36.4443 21.7097 37.44 21.2976 38.1744 20.564C38.9088 19.8303 39.3219 18.8352 39.323 17.7971V17.0968C39.323 16.7631 39.1905 16.4431 38.9546 16.2072C38.7186 15.9713 38.3986 15.8387 38.065 15.8387C37.7313 15.8387 37.4113 15.9713 37.1754 16.2072C36.9395 16.4431 36.8069 16.7631 36.8069 17.0968V17.7971C36.8058 18.1671 36.6583 18.5217 36.3967 18.7833C36.135 19.045 35.7805 19.1924 35.4105 19.1935H34.8485C33.8112 19.1947 32.8167 19.6072 32.0831 20.3407C31.3496 21.0743 30.9371 22.0688 30.936 23.1061V23.8065C30.936 24.1401 31.0685 24.4601 31.3044 24.696C31.5404 24.932 31.8604 25.0645 32.194 25.0645Z" fill="#FE5D38"/>
<path d="M20.7876 41C21.4626 41.0007 22.1326 40.8828 22.7669 40.6519L31.5231 37.469C31.9925 37.3039 32.4122 37.0222 32.7429 36.6502C33.0735 36.2783 33.3042 35.8285 33.4132 35.3429C33.5222 34.8574 33.506 34.3521 33.3661 33.8746C33.2262 33.397 32.9672 32.9629 32.6134 32.6129L23.3876 23.3871C23.0384 23.0379 22.6069 22.7824 22.1328 22.6443C21.6587 22.5061 21.1574 22.4898 20.6753 22.5968C20.1933 22.7039 19.746 22.9308 19.3749 23.2566C19.0038 23.5824 18.7209 23.9965 18.5524 24.4606L15.3485 33.2335C15.0303 34.1079 14.9276 35.046 15.049 35.9685C15.1705 36.8909 15.5126 37.7705 16.0464 38.5326C16.5801 39.2947 17.2897 39.9169 18.1151 40.3464C18.9404 40.776 19.8571 41.0002 20.7876 41ZM17.7137 34.0932L20.8966 25.3413C20.9204 25.2746 20.9607 25.2151 21.0137 25.1681C21.0667 25.1212 21.1307 25.0885 21.1998 25.073C21.2689 25.0575 21.3408 25.0598 21.4087 25.0796C21.4767 25.0993 21.5386 25.136 21.5885 25.1861L30.8143 34.4119C30.8645 34.4619 30.9011 34.5238 30.9209 34.5917C30.9407 34.6597 30.9429 34.7316 30.9274 34.8007C30.912 34.8697 30.8792 34.9338 30.8323 34.9868C30.7854 35.0398 30.7259 35.0801 30.6592 35.1039L21.9072 38.2868C21.322 38.5002 20.6879 38.542 20.0797 38.4073C19.4715 38.2727 18.9143 37.9671 18.4738 37.5266C18.0333 37.0861 17.7278 36.529 17.5931 35.9208C17.4585 35.3125 17.5003 34.6785 17.7137 34.0932Z" fill="#FE5D38"/>
<path d="M38.8995 35.129C39.5943 35.129 40.1576 34.5658 40.1576 33.871C40.1576 33.1762 39.5943 32.6129 38.8995 32.6129C38.2047 32.6129 37.6414 33.1762 37.6414 33.871C37.6414 34.5658 38.2047 35.129 38.8995 35.129Z" fill="#FE5D38"/>
<path d="M39.7424 26.3226C37.8988 26.3686 36.0941 26.8622 34.4837 27.761C34.3419 27.8461 34.2182 27.9582 34.1198 28.0911C34.0213 28.224 33.95 28.3749 33.9099 28.5354C33.8698 28.6958 33.8617 28.8626 33.886 29.0262C33.9104 29.1897 33.9667 29.3469 34.0518 29.4887C34.1368 29.6305 34.249 29.7542 34.3819 29.8526C34.5148 29.9511 34.6657 30.0224 34.8262 30.0625C34.9866 30.1026 35.1534 30.1107 35.3169 30.0864C35.4805 30.062 35.6377 30.0057 35.7795 29.9206C36.9967 29.2526 38.3546 28.8819 39.7424 28.8387C40.0761 28.8387 40.3961 28.7062 40.632 28.4702C40.8679 28.2343 41.0005 27.9143 41.0005 27.5806C41.0005 27.247 40.8679 26.927 40.632 26.6911C40.3961 26.4551 40.0761 26.3226 39.7424 26.3226Z" fill="#FE5D38"/>
<path d="M21.2866 18.359C21.9814 18.359 22.5447 17.7958 22.5447 17.101C22.5447 16.4062 21.9814 15.8429 21.2866 15.8429C20.5918 15.8429 20.0285 16.4062 20.0285 17.101C20.0285 17.7958 20.5918 18.359 21.2866 18.359Z" fill="#FE5D38"/>
<path d="M27.5811 15C27.2475 15 26.9275 15.1325 26.6915 15.3685C26.4556 15.6044 26.3231 15.9244 26.3231 16.2581C26.2762 17.6461 25.9072 19.0042 25.2453 20.2252C25.1543 20.3668 25.0926 20.5253 25.0639 20.6912C25.0353 20.8571 25.0402 21.0271 25.0785 21.1911C25.1167 21.3551 25.1875 21.5097 25.2866 21.6459C25.3857 21.782 25.5111 21.8968 25.6554 21.9836C25.7998 22.0703 25.96 22.1272 26.1267 22.1509C26.2934 22.1746 26.4632 22.1646 26.626 22.1214C26.7887 22.0783 26.9412 22.0029 27.0743 21.8998C27.2074 21.7966 27.3184 21.6678 27.4008 21.521C28.3002 19.9094 28.7938 18.1031 28.8392 16.2581C28.8392 15.9244 28.7066 15.6044 28.4707 15.3685C28.2348 15.1325 27.9148 15 27.5811 15Z" fill="#FE5D38"/>
</svg>
