<svg width="307" height="154" viewBox="0 0 307 154" fill="none" xmlns="http://www.w3.org/2000/svg">
<path d="M136.134 154H0.5V57.3888C0.5 40.4395 2.68178 24.2165 7.04534 8.72C11.6513 -7.01867 19.2876 -20.9413 29.954 -33.048C40.6205 -45.1547 54.5597 -54.84 71.7715 -62.104C89.2257 -69.368 110.68 -73 136.134 -73V-10.5296C121.589 -10.5296 109.468 -8.83466 99.771 -5.4448C90.0742 -2.29707 82.3168 2.30347 76.4987 8.3568C70.923 14.168 66.9231 21.1899 64.4989 29.4224C62.0747 37.6549 60.8626 46.9771 60.8626 57.3888V62.4736H136.134V154ZM306.5 154H170.866V57.3888C170.866 40.4395 173.048 24.2165 177.411 8.72C182.017 -7.01867 189.654 -20.9413 200.32 -33.048C210.986 -45.1547 224.926 -54.84 242.137 -62.104C259.592 -69.368 281.046 -73 306.5 -73V-10.5296C291.955 -10.5296 279.834 -8.83466 270.137 -5.4448C260.683 -2.29707 253.046 2.30347 247.228 8.3568C241.41 14.168 237.289 21.1899 234.865 29.4224C232.441 37.6549 231.229 46.9771 231.229 57.3888V62.4736H306.5V154Z" fill="black" fill-opacity="0.06"/>
</svg>
