<svg width="57" height="56" viewBox="0 0 57 56" fill="none" xmlns="http://www.w3.org/2000/svg">
<rect x="0.176758" width="56" height="56" rx="28" fill="#FFEFEC"/>
<path d="M41.7314 40.3545L37.8243 36.4474C37.5189 36.142 37.0675 36.0701 36.6927 36.2306L33.988 33.5258C34.9572 32.1912 35.6074 30.6567 35.8911 29.0105C36.2493 26.9335 36.0046 24.8269 35.1846 22.9006C35.9836 22.1597 36.9348 21.7448 37.7596 21.5999C37.9417 21.5678 38.0747 21.4098 38.0747 21.2248C38.0747 21.0398 37.9417 20.8815 37.7596 20.8497C36.1831 20.5728 34.1452 19.3119 33.5901 16.67C33.5528 16.4937 33.3974 16.3675 33.2171 16.3675C33.0368 16.3675 32.8814 16.4937 32.8441 16.67C32.6772 17.4644 32.3754 18.1334 31.993 18.6888C29.971 17.0593 27.4433 16.2118 24.8286 16.2974C22.0628 16.3878 19.4618 17.5157 17.5041 19.4734C15.4524 21.5251 14.3223 24.2533 14.3223 27.155C14.3223 30.0567 15.4524 32.785 17.5041 34.8366C19.5557 36.8887 22.284 38.0184 25.1857 38.0184C27.5062 38.0184 29.7151 37.2953 31.5565 35.9563L34.2612 38.661C34.1007 39.0358 34.1726 39.4872 34.478 39.7926L38.3851 43.6997C38.5854 43.8999 38.8485 44 39.1119 44C39.3754 44 39.6381 43.8999 39.8387 43.6997L41.7306 41.8077C41.9244 41.614 42.031 41.356 42.031 41.081C42.031 40.8059 41.9244 40.5479 41.7306 40.3542L41.7314 40.3545ZM33.2175 18.0314C33.9045 19.6693 35.1531 20.695 36.3859 21.2244C35.1531 21.7542 33.9045 22.7799 33.2175 24.4174C32.5304 22.7795 31.2818 21.7539 30.049 21.2244C31.2818 20.6946 32.5304 19.669 33.2175 18.0314ZM28.675 21.5999C30.2503 21.8768 32.2865 23.1362 32.8434 25.7745C33.2934 28.2837 32.4878 30.8562 30.6876 32.6563C27.6544 35.6896 22.7187 35.6896 19.6851 32.6563C16.6519 29.6231 16.6519 24.687 19.6851 21.6538C22.3096 19.0293 26.3985 18.6422 29.4469 20.6437C29.1835 20.7376 28.9236 20.8059 28.6754 20.8493C28.4932 20.8815 28.3602 21.0394 28.3602 21.2244C28.3602 21.4095 28.4932 21.5678 28.6754 21.5996L28.675 21.5999ZM25.1864 37.2566C22.4881 37.2566 19.9515 36.206 18.0436 34.2978C16.1358 32.39 15.0848 29.8533 15.0848 27.155C15.0848 24.4568 16.1354 21.9201 18.0436 20.0119C21.6902 16.3654 27.5359 16.0748 31.5167 19.2826C31.1304 19.6971 30.6967 20.026 30.2518 20.2761C26.8709 17.7792 22.1408 18.1203 19.1463 21.1149C15.8159 24.4452 15.8159 29.8645 19.1463 33.1948C20.8116 34.8601 22.9988 35.6928 25.1864 35.6928C27.3736 35.6928 29.5612 34.8601 31.2265 33.1948C33.1857 31.2356 34.0711 28.4445 33.6056 25.7134C33.8008 24.8323 34.1614 24.1063 34.6146 23.5219C36.0339 27.2147 35.1506 31.4763 32.3291 34.2978C30.4213 36.2056 27.8846 37.2566 25.1864 37.2566ZM32.1618 35.4836C32.405 35.2794 32.641 35.064 32.8683 34.8366C33.0953 34.6097 33.3111 34.3737 33.5153 34.1305L36.1018 36.717L34.7487 38.0701L32.1618 35.4836ZM41.1925 41.2692L39.3006 43.1612C39.1969 43.2649 39.0281 43.2649 38.9247 43.1612L35.0176 39.2541C34.9157 39.1521 34.9157 38.9801 35.0176 38.8782L36.9095 36.9863C36.9605 36.9353 37.0288 36.91 37.0975 36.91C37.1661 36.91 37.2344 36.9357 37.2854 36.9863L41.1925 40.8934C41.2424 40.9429 41.2695 41.0098 41.2695 41.0813C41.2695 41.1529 41.242 41.2197 41.1925 41.2692ZM34.7299 13.9957C34.7299 13.7853 34.9005 13.6147 35.1108 13.6147H36.3447V12.3809C36.3447 12.1706 36.5153 12 36.7256 12C36.9359 12 37.1065 12.1706 37.1065 12.3809V13.6147H38.3403C38.5507 13.6147 38.7213 13.7853 38.7213 13.9957C38.7213 14.206 38.5507 14.3766 38.3403 14.3766H37.1065V15.6104C37.1065 15.8207 36.9359 15.9913 36.7256 15.9913C36.5153 15.9913 36.3447 15.8207 36.3447 15.6104V14.3766H35.1108C34.9005 14.3766 34.7299 14.206 34.7299 13.9957ZM17.1076 13.9957C17.1076 13.7853 17.2782 13.6147 17.4885 13.6147H18.7223V12.3809C18.7223 12.1706 18.8929 12 19.1033 12C19.3136 12 19.4842 12.1706 19.4842 12.3809V13.6147H20.718C20.9283 13.6147 21.0989 13.7853 21.0989 13.9957C21.0989 14.206 20.9283 14.3766 20.718 14.3766H19.4842V15.6104C19.4842 15.8207 19.3136 15.9913 19.1033 15.9913C18.8929 15.9913 18.7223 15.8207 18.7223 15.6104V14.3766H17.4885C17.2782 14.3766 17.1076 14.206 17.1076 13.9957ZM38.6522 26.9588C38.8626 26.9588 39.0331 27.1294 39.0331 27.3397V28.5735H40.267C40.4773 28.5735 40.6479 28.7441 40.6479 28.9545C40.6479 29.1648 40.4773 29.3354 40.267 29.3354H39.0331V30.5692C39.0331 30.7795 38.8626 30.9501 38.6522 30.9501C38.4419 30.9501 38.2713 30.7795 38.2713 30.5692V29.3354H37.0375C36.8271 29.3354 36.6566 29.1648 36.6566 28.9545C36.6566 28.7441 36.8271 28.5735 37.0375 28.5735H38.2713V27.3397C38.2713 27.1294 38.4419 26.9588 38.6522 26.9588ZM21.4816 23.3238L19.0722 26.0152C19.0577 26.0314 19.0451 26.0491 19.0335 26.0672C19.0299 26.073 19.0266 26.0791 19.0234 26.0849C19.0162 26.0979 19.01 26.1109 19.0042 26.1243C19.0013 26.1312 18.9988 26.1381 18.9963 26.1449C18.9912 26.1594 18.9872 26.1738 18.9844 26.1887C18.9833 26.1941 18.9815 26.1999 18.9804 26.2053C18.9768 26.2255 18.975 26.2461 18.975 26.2671C18.975 26.2711 18.9757 26.275 18.9757 26.2794C18.976 26.296 18.9775 26.3126 18.98 26.3292C18.9811 26.3365 18.9829 26.3433 18.9844 26.3502C18.9872 26.3636 18.9909 26.3769 18.9956 26.3903C18.9981 26.3979 19.0006 26.4051 19.0035 26.4124C19.0053 26.4163 19.006 26.4207 19.0078 26.4246C19.0122 26.4344 19.018 26.4434 19.023 26.4528C19.0259 26.4583 19.0284 26.464 19.0317 26.4691C19.0429 26.4875 19.0559 26.5045 19.07 26.5208C19.0707 26.5215 19.0711 26.5226 19.0718 26.5233L24.9023 33.0358C24.9114 33.0459 24.9211 33.0557 24.9312 33.0647C24.9345 33.0676 24.9377 33.0697 24.941 33.0726C24.9442 33.0752 24.9471 33.0777 24.9504 33.0802C24.9544 33.0835 24.9583 33.0867 24.9623 33.09C24.9688 33.0947 24.976 33.099 24.9829 33.1034C24.9872 33.1063 24.9916 33.1091 24.9959 33.1117C24.997 33.1124 24.9981 33.1128 24.9992 33.1135L24.9995 33.1138C25.0006 33.1146 25.0021 33.1149 25.0035 33.1156C25.0082 33.1182 25.0129 33.1203 25.0176 33.1229C25.0223 33.125 25.0266 33.1279 25.0317 33.1301C25.0342 33.1312 25.0371 33.1323 25.04 33.1334C25.0447 33.1352 25.0494 33.137 25.0537 33.1388C25.0588 33.1406 25.0639 33.1428 25.0689 33.1446C25.0733 33.146 25.078 33.1471 25.0823 33.1482C25.0874 33.1496 25.0928 33.1511 25.0978 33.1525C25.1011 33.1532 25.104 33.1543 25.1072 33.155C25.1137 33.1565 25.1206 33.1572 25.1271 33.1583C25.1322 33.159 25.1369 33.1601 25.1416 33.1605C25.143 33.1605 25.1448 33.1608 25.1463 33.1612C25.1571 33.1623 25.1683 33.1626 25.1791 33.163C25.181 33.163 25.1831 33.163 25.1849 33.163H25.1864C25.1882 33.163 25.1904 33.163 25.1922 33.163C25.203 33.163 25.2142 33.1623 25.225 33.1612C25.2265 33.1612 25.2283 33.1608 25.2297 33.1605C25.2344 33.1597 25.2395 33.159 25.2442 33.1583C25.2507 33.1572 25.2576 33.1565 25.2641 33.155C25.2673 33.1543 25.2702 33.1532 25.2735 33.1525C25.2785 33.1514 25.284 33.15 25.289 33.1482C25.2934 33.1471 25.298 33.146 25.3024 33.1446C25.3074 33.1428 25.3125 33.1406 25.3176 33.1388C25.3223 33.137 25.327 33.1355 25.3313 33.1334C25.3342 33.1323 25.3367 33.1312 25.3396 33.1301C25.3443 33.1279 25.349 33.1254 25.3533 33.1232C25.358 33.1207 25.3631 33.1185 25.3678 33.116C25.3689 33.1153 25.3703 33.1149 25.3714 33.1142C25.3725 33.1135 25.3739 33.1131 25.375 33.1124C25.3794 33.1099 25.3833 33.107 25.3873 33.1044C25.3945 33.1001 25.4018 33.0958 25.4086 33.0907C25.4126 33.0878 25.4166 33.0842 25.4206 33.081C25.4238 33.0784 25.4271 33.0759 25.43 33.0734C25.4332 33.0705 25.4365 33.0683 25.4397 33.0654C25.4498 33.0564 25.4592 33.0466 25.4686 33.0365L31.2991 26.524C31.2991 26.524 31.3002 26.5222 31.3009 26.5215C31.315 26.5056 31.3277 26.4883 31.3393 26.4698C31.3425 26.4648 31.3447 26.4593 31.3479 26.4539C31.3533 26.4445 31.3588 26.4351 31.3635 26.4254C31.3653 26.4214 31.3664 26.4171 31.3682 26.4127C31.3711 26.4055 31.3736 26.3983 31.3761 26.391C31.3808 26.3777 31.3844 26.3643 31.3873 26.3506C31.3888 26.3437 31.3906 26.3368 31.3917 26.33C31.3942 26.3133 31.3956 26.2963 31.396 26.2797C31.396 26.2757 31.3967 26.2718 31.3967 26.2678C31.3967 26.2472 31.3945 26.2266 31.3913 26.206C31.3902 26.2002 31.3888 26.1948 31.3873 26.1894C31.3841 26.1746 31.3801 26.1597 31.3754 26.1453C31.3729 26.1384 31.3703 26.1315 31.3674 26.1247C31.362 26.1113 31.3555 26.0979 31.3483 26.0853C31.345 26.0795 31.3418 26.0734 31.3382 26.0676C31.327 26.0495 31.3143 26.0318 31.2995 26.0155L28.89 23.3242C28.8177 23.2436 28.7144 23.1973 28.6063 23.1973H21.7639C21.6555 23.1973 21.5525 23.2436 21.4802 23.3242L21.4816 23.3238ZM20.2084 26.6502H22.9348L24.3252 31.2479L20.2084 26.6502ZM25.1867 31.4655L23.731 26.6502H26.6428L25.1871 31.4655H25.1867ZM26.0483 31.2483L27.4386 26.6505H30.1651L26.0483 31.2483ZM28.4376 23.9592L30.1651 25.8883H27.4563L26.9934 23.9592H28.4376ZM24.1636 23.9592H26.2099L26.6728 25.8883H23.701L24.1636 23.9592ZM23.3801 23.9592L22.9171 25.8883H20.2084L21.9359 23.9592H23.3801Z" fill="#FE5D38"/>
</svg>
