<svg width="57" height="56" viewBox="0 0 57 56" fill="none" xmlns="http://www.w3.org/2000/svg">
<rect x="0.176758" width="56" height="56" rx="28" fill="#FFEFEC"/>
<path d="M42.971 26.8045H39.3961C39.1858 26.8045 39.0152 26.9751 39.0152 27.1854V28.2414H35.8331L31.4042 27.5819C30.6012 27.4622 29.8672 27.6516 29.2225 28.1442L28.1568 28.9581L27.1196 28.1576C26.4727 27.6585 25.7351 27.4662 24.927 27.5862L20.5198 28.241H17.3377V27.1851C17.3377 27.0839 17.2976 26.987 17.226 26.9158C17.1545 26.8443 17.0576 26.8041 16.9568 26.8041H13.3819C13.1716 26.8041 13.001 26.9747 13.001 27.1851V36.8711C13.001 36.9723 13.0411 37.0692 13.1126 37.1404C13.1842 37.2119 13.2811 37.252 13.3819 37.252H16.9568C17.1671 37.252 17.3377 37.0815 17.3377 36.8711V35.8151H18.0442C18.3413 35.8151 18.5921 35.8954 18.8342 36.0674L18.9661 36.161L18.4414 36.6857C17.8986 37.2286 17.9893 38.1075 18.6572 38.7757C18.9716 39.0901 19.3818 39.3124 19.7894 39.3543C19.7706 39.7851 19.9679 40.2581 20.368 40.6585C20.7511 41.0416 21.2003 41.2386 21.6155 41.2386C21.7735 41.2386 21.9263 41.21 22.0687 41.1526C22.1522 41.4475 22.3275 41.7435 22.592 42.008C22.9751 42.3911 23.4243 42.588 23.8399 42.588C23.9725 42.588 24.1012 42.5667 24.2233 42.5262C24.2237 42.5277 24.2241 42.5291 24.2244 42.5309C24.3983 43.1793 24.9953 43.7759 25.6436 43.9498C25.769 43.9834 25.8919 44 26.0108 44C26.3292 44 26.6187 43.8811 26.8489 43.6509L27.9002 42.5996C27.9164 42.5833 27.9316 42.5671 27.9468 42.5504L29.5803 43.725C29.7888 43.875 30.0244 43.9472 30.2662 43.9472C30.7404 43.9472 31.2387 43.6697 31.607 43.1576C31.8332 42.8435 31.9601 42.5111 31.9897 42.197C32.2271 42.236 32.4787 42.1999 32.7288 42.0875C33.3301 41.8165 33.8166 41.1504 33.8971 40.4938C34.4906 40.6296 35.115 40.261 35.4992 39.7272C35.8273 39.2712 35.9419 38.7829 35.8508 38.3608C36.2372 38.2484 36.6029 37.9575 36.8642 37.5947C37.1855 37.148 37.3091 36.6763 37.2404 36.2694L37.5219 36.0688C37.7641 35.8965 38.0156 35.8159 38.3127 35.8159H39.0156V36.8719C39.0156 36.9731 39.0557 37.0699 39.1272 37.1411C39.1988 37.2127 39.2956 37.2528 39.3965 37.2528H42.9714C43.1817 37.2528 43.3523 37.0822 43.3523 36.8719V27.1858C43.3523 26.9754 43.1817 26.8049 42.9714 26.8049L42.971 26.8045ZM16.5759 36.4906H13.7632V27.5663H16.5759V36.4906ZM20.2285 38.4732C19.9361 38.7656 19.4508 38.4924 19.196 38.2376C18.9835 38.0251 18.6651 37.5401 18.9802 37.2253L20.0315 36.174C20.0662 36.1393 20.1569 36.0486 20.334 36.0486C20.3828 36.0486 20.4381 36.0555 20.501 36.0721C20.8837 36.1747 21.2787 36.5694 21.3813 36.9521C21.459 37.2423 21.3242 37.3775 21.2798 37.4219L20.2285 38.4732ZM21.9209 40.3543C21.6123 40.6629 21.1226 40.3362 20.9068 40.1204C20.6911 39.9047 20.3644 39.415 20.6726 39.1064L22.9151 36.8639C22.9498 36.8292 23.0405 36.7385 23.2176 36.7385C23.2664 36.7385 23.322 36.7454 23.3846 36.762C23.7673 36.8646 24.1623 37.2596 24.2649 37.6424C24.3426 37.9326 24.2078 38.0674 24.1634 38.1118L21.9209 40.3543ZM24.5233 41.3253C24.5233 41.3253 24.5222 41.3268 24.5215 41.3271L24.1449 41.7037C23.8363 42.012 23.3466 41.6853 23.1309 41.4695C22.9151 41.2538 22.5884 40.7641 22.8967 40.4554L24.7018 38.6503C24.7857 38.5664 24.8854 38.5249 25.0043 38.5249C25.0437 38.5249 25.0853 38.5296 25.129 38.5386C25.3227 38.5787 25.5367 38.7049 25.7163 38.8845C25.8959 39.0641 26.0216 39.278 26.0621 39.4717C26.0986 39.6474 26.0621 39.7869 25.9504 39.8985L25.5804 40.2686C25.5804 40.2686 25.5768 40.2719 25.575 40.2737L24.5233 41.3253ZM27.3617 42.0608L26.3104 43.1121C26.2659 43.1565 26.1311 43.2913 25.8409 43.2136C25.4582 43.111 25.0632 42.7163 24.9606 42.3336C24.8879 42.0626 25.0003 41.927 25.052 41.8739L26.1171 40.8089C26.2067 40.7211 26.3115 40.686 26.4203 40.686C26.6855 40.686 26.975 40.8938 27.1275 41.0463C27.3433 41.2621 27.6703 41.7525 27.3617 42.0608ZM36.2451 37.1491C35.9903 37.5029 35.5812 37.7638 35.3366 37.5889L31.5795 34.8444C31.4097 34.7205 31.1711 34.7573 31.0472 34.9272C30.9232 35.0971 30.9601 35.3356 31.1299 35.4595L34.8884 38.205L34.8892 38.2054C34.8892 38.2054 34.8899 38.2061 34.8906 38.2065C35.3792 38.5585 34.9325 39.2086 34.8801 39.2816C34.6799 39.5599 34.2405 39.9134 33.9138 39.6781L33.4132 39.3181L29.7682 36.6557C29.5984 36.5318 29.3598 36.5687 29.2359 36.7385C29.1119 36.9084 29.1488 37.1469 29.3186 37.2708L32.9644 39.9336L32.9651 39.934C32.9651 39.934 32.9658 39.9347 32.9666 39.935C33.0175 39.9715 33.1725 40.0832 33.1422 40.3821C33.1024 40.7764 32.7765 41.2296 32.4151 41.3922C32.1411 41.5158 31.9865 41.4041 31.9355 41.3676L31.5036 41.0564L28.3534 38.7554C28.1835 38.6315 27.945 38.6684 27.821 38.8382C27.6971 39.0081 27.7339 39.2466 27.9038 39.3705L31.0541 41.6715L31.0548 41.6719C31.0548 41.6719 31.0555 41.6726 31.0562 41.673L31.0569 41.6737C31.4097 41.9288 31.1664 42.4641 30.9883 42.7116C30.8101 42.9595 30.3793 43.3607 30.0248 43.1055L28.2439 41.8237C28.267 41.3893 28.07 40.9112 27.666 40.5068C27.4025 40.2433 27.0888 40.0568 26.7748 39.9741C26.9407 39.4685 26.7589 38.849 26.2544 38.3449C25.8847 37.9752 25.4528 37.779 25.0495 37.766C25.0459 37.6611 25.03 37.5538 25.0003 37.4443C24.8265 36.7956 24.2299 36.1989 23.5811 36.0251C23.1196 35.9015 22.6918 36.0078 22.3755 36.324L22.0752 36.6243C21.8616 36.0273 21.3018 35.4971 20.6972 35.3352C20.2455 35.2145 19.8263 35.3143 19.5122 35.6149L19.2748 35.4462C18.9025 35.1816 18.4999 35.053 18.0431 35.053H17.3366V29.0021H20.5469C20.5657 29.0021 20.5845 29.0007 20.6029 28.9982L25.0379 28.3393C25.6331 28.2512 26.1763 28.3925 26.653 28.76L27.5287 29.4358L25.7795 30.7719C24.9978 31.3689 25.1677 32.4386 25.739 33.1871C26.3108 33.9355 27.2981 34.3804 28.0801 33.7834L30.0226 32.2995C30.3891 32.0194 30.8809 32.0205 31.2463 32.3024L34.4757 34.7931C34.479 34.7957 34.4826 34.7982 34.4859 34.8007L36.3123 36.1155C36.6633 36.3681 36.4348 36.8831 36.2444 37.1476L36.2451 37.1491ZM39.0148 35.0537H38.3119C37.8548 35.0537 37.4515 35.1827 37.0792 35.448L36.8747 35.5936C36.8382 35.5604 36.7999 35.5282 36.7583 35.4986L34.9369 34.1878L31.7125 31.7007C31.0703 31.2052 30.2059 31.203 29.5611 31.6956L27.6186 33.1795C27.1557 33.5329 26.5836 33.0375 26.3455 32.7259C26.1077 32.4144 25.7802 31.7321 26.2428 31.3787L28.3862 29.7416L28.387 29.7412L29.6844 28.7503C30.1596 28.3874 30.7003 28.2479 31.2915 28.3361L35.7486 28.9996C35.767 29.0025 35.7858 29.0036 35.8046 29.0036H39.0148V35.0544V35.0537ZM42.5898 36.4906H39.777V27.5663H42.5898V36.4906ZM28.0776 27.3831C28.1098 27.3918 28.143 27.3961 28.1763 27.3961C28.2095 27.3961 28.2424 27.3918 28.2749 27.3831C29.8278 26.9671 34.8939 25.2903 34.8939 21.1827V13.9924C34.8939 13.8529 34.8176 13.7249 34.6955 13.6581C32.7082 12.5735 30.4538 12 28.1763 12C25.8988 12 23.6448 12.5732 21.6571 13.6581C21.5349 13.7249 21.4587 13.8532 21.4587 13.9924V21.1827C21.4587 25.2903 26.5247 26.9668 28.0776 27.3831ZM22.2209 14.2208C24.0477 13.2656 26.1019 12.7618 28.1766 12.7618C30.2514 12.7618 32.3056 13.2656 34.1324 14.2208V21.1827C34.1324 24.669 29.7006 26.1984 28.1766 26.6202C26.653 26.1984 22.2209 24.669 22.2209 21.1827V14.2208ZM25.3784 19.9919L26.7701 21.8845C26.9811 22.1725 27.3093 22.3254 27.6418 22.3254C27.8633 22.3254 28.0866 22.2574 28.2785 22.1169C28.3729 22.0478 28.4549 21.9644 28.5218 21.8697L30.9749 18.5329C31.3265 18.053 31.2225 17.3761 30.7425 17.0245C30.2626 16.6728 29.5857 16.7769 29.2344 17.2565L27.6403 19.4245L27.1188 18.7151C26.7668 18.2351 26.0903 18.1311 25.6104 18.4827C25.1304 18.8347 25.0264 19.5112 25.378 19.9911L25.3784 19.9919ZM26.0607 19.0974C26.2016 18.9941 26.4007 19.0244 26.5045 19.1661L27.3331 20.2933C27.4051 20.3908 27.5189 20.4487 27.64 20.4487C27.761 20.4487 27.8752 20.3908 27.9468 20.2933L29.8481 17.7071C29.9514 17.5662 30.1506 17.5355 30.2919 17.6388C30.4328 17.7422 30.4635 17.9413 30.3605 18.0819L27.9052 21.4212C27.9034 21.4237 27.9016 21.4259 27.9002 21.4284C27.8803 21.4566 27.8561 21.4815 27.8279 21.5021C27.6866 21.6055 27.4878 21.5748 27.3841 21.4335L25.9924 19.5408C25.889 19.3995 25.9194 19.2008 26.0607 19.0974ZM28.1763 24.6018C30.9503 24.6018 33.2072 22.3449 33.2072 19.5708C33.2072 16.7968 30.9503 14.5399 28.1763 14.5399C25.4022 14.5399 23.1453 16.7968 23.1453 19.5708C23.1453 22.3449 25.4022 24.6018 28.1763 24.6018ZM28.1763 15.3021C30.53 15.3021 32.4454 17.2171 32.4454 19.5712C32.4454 21.9253 30.5304 23.8404 28.1763 23.8404C25.8222 23.8404 23.9071 21.9253 23.9071 19.5712C23.9071 17.2171 25.8222 15.3021 28.1763 15.3021Z" fill="#FE5D38"/>
</svg>
