<svg width="57" height="56" viewBox="0 0 57 56" fill="none" xmlns="http://www.w3.org/2000/svg">
<rect x="0.537109" width="56" height="56" rx="28" fill="#FFEFEC"/>
<path fill-rule="evenodd" clip-rule="evenodd" d="M39.2722 35.5925C39.2722 37.0454 38.6069 38.0982 37.4944 39.2122L35.7054 41.0068C35.4499 41.2637 35.3874 41.604 35.3846 41.9637L35.3707 43.5055C35.3679 43.7805 35.1443 44.0013 34.8693 43.9999C34.5942 43.9971 34.3734 43.7735 34.3748 43.4985L34.3887 41.9568C34.3942 41.329 34.5415 40.7637 34.9984 40.3039L36.7874 38.5094C37.7041 37.5899 38.2763 36.7552 38.2763 35.5926V32.9995C38.1444 33.0397 38.0041 33.062 37.8582 33.062H37.0638L37.0665 33.7064C37.0665 34.487 36.4304 35.1218 35.6512 35.1218H35.0095L35.015 35.9871C35.0164 36.2621 34.7942 36.4857 34.5192 36.4871C34.2442 36.4885 34.0206 36.2663 34.0192 35.9913L33.9803 30.4966C33.9734 29.4424 32.4164 29.4244 32.1427 30.4411L31.3302 33.462C31.3107 33.5357 31.2746 33.6051 31.2205 33.6648L29.6176 35.451C29.1648 35.9566 28.9468 36.5246 28.9454 37.2025L28.9329 43.5014C28.9329 43.7764 28.7106 44 28.4356 44C28.1606 44 27.937 43.7764 27.937 43.5014L27.9495 37.2025C27.9509 36.433 28.1676 35.7357 28.6079 35.1204H19.2049C18.4243 35.1204 17.7881 34.4857 17.7881 33.7051L17.7909 20.4075C17.7909 18.9546 18.4562 17.9018 19.5687 16.7878L21.3577 14.9932C21.6133 14.7363 21.6744 14.396 21.6785 14.0363L21.6924 12.4945C21.6952 12.2195 21.9188 11.9987 22.1938 12.0001C22.4689 12.0029 22.6897 12.2265 22.6883 12.5015L22.6744 14.0432C22.6689 14.671 22.5216 15.2363 22.0647 15.6961L20.2757 17.4906C19.359 18.4101 18.7868 19.2448 18.7868 20.4074V23.0019C18.9187 22.9616 19.059 22.9394 19.2049 22.9394H19.9966V22.3338C19.9966 21.5533 20.6313 20.9185 21.4119 20.9185H22.055L22.0481 20.0129C22.0467 19.7379 22.2689 19.5143 22.5439 19.5129C22.8189 19.5115 23.0425 19.7337 23.0439 20.0087L23.0828 25.5034C23.0898 26.5576 24.6481 26.5756 24.9204 25.5589L25.7329 22.538C25.7524 22.4643 25.7885 22.3949 25.8427 22.3352L27.4455 20.549C27.8983 20.0434 28.1164 19.4754 28.1177 18.7975L28.1302 12.4986C28.1302 12.2236 28.3539 12 28.6289 12C28.9039 12 29.1275 12.2236 29.1275 12.4986L29.115 18.7975C29.1136 19.5851 28.8872 20.2962 28.4261 20.9199L37.8583 20.9171C38.6388 20.9171 39.2736 21.5519 39.2736 22.3324L39.2708 35.5913L39.2722 35.5925ZM15.1895 34.0341C14.9131 34.0341 14.6895 33.8105 14.6895 33.5341C14.6895 33.2578 14.9131 33.0341 15.1895 33.0341H16.1145C16.3909 33.0341 16.6145 33.2578 16.6145 33.5341C16.6145 33.8105 16.3909 34.0341 16.1145 34.0341H15.1895ZM17.9493 37.8163L18.4118 37.0163C18.5493 36.7774 18.4688 36.4732 18.2299 36.3343C17.991 36.1954 17.6868 36.2774 17.5479 36.5163L17.0853 37.3177C16.9478 37.5566 17.0284 37.8608 17.2673 37.9997C17.5062 38.1372 17.8104 38.0566 17.9493 37.8177V37.8163ZM15.5881 36.5677C15.3492 36.7052 15.045 36.6246 14.9061 36.3857C14.7672 36.1468 14.8492 35.8427 15.0881 35.7037L16.5312 34.8704C16.7701 34.7329 17.0742 34.8134 17.2132 35.0523C17.3507 35.2912 17.2701 35.5954 17.0312 35.7343L15.5881 36.5677ZM39.1293 18.3657L38.6668 19.1671C38.5293 19.406 38.6112 19.7102 38.8501 19.8463C39.089 19.9838 39.3932 19.9005 39.5293 19.663L39.9919 18.8616C40.1294 18.6227 40.046 18.3185 39.8085 18.1824C39.5696 18.0449 39.2655 18.1282 39.1293 18.3657ZM41.8891 22.1479C42.1642 22.1479 42.3864 22.3715 42.3864 22.6465C42.3864 22.9215 42.1641 23.1437 41.8891 23.1437H40.9641C40.6891 23.1437 40.4655 22.9201 40.4655 22.6451C40.4655 22.3701 40.6877 22.1465 40.9641 22.1465H41.8891V22.1479ZM41.4905 19.6117C41.7294 19.4728 42.0336 19.5547 42.1725 19.7936C42.31 20.0325 42.2294 20.3367 41.9905 20.4756L40.546 21.309C40.3071 21.4465 40.003 21.366 39.864 21.1271C39.7252 20.8882 39.8071 20.584 40.046 20.4451L41.4891 19.6117H41.4905ZM27.2926 26.3494C26.5773 26.5299 26.012 27.0939 26.012 27.9078C26.012 30.0717 28.5121 29.0578 28.5121 30.1606C28.5121 30.8898 27.2565 31.0218 27.0356 30.3176L26.0828 30.6148C26.2731 31.226 26.7481 31.5913 27.2926 31.7232V32.4107H28.2926V31.7024C28.9801 31.5065 29.5121 30.9509 29.5121 30.1593C29.5121 27.9967 27.0134 29.0092 27.0134 27.9064C27.0134 27.1814 28.2593 27.0453 28.4871 27.7411L29.4357 27.4328C29.2454 26.8522 28.8038 26.4994 28.2926 26.3577V25.6452H27.2926V26.3494ZM35.0014 34.1204H35.65C35.8778 34.1204 36.0667 33.9329 36.0667 33.7037V24.3518C36.0667 24.124 35.8792 23.9351 35.65 23.9351H26.3885L25.8843 25.813C25.312 27.9422 22.1006 27.7297 22.0839 25.5032L22.0728 23.9337H19.2005C18.9727 23.9337 18.7852 24.1212 18.7852 24.3504V33.7023C18.7852 33.93 18.9727 34.1189 19.2019 34.1189L29.4608 34.1301L30.3955 33.0897L31.1761 30.1799C31.7484 28.0506 34.9597 28.2632 34.9764 30.4896L35.0014 34.1189L35.0014 34.1204ZM37.0653 32.0605H37.8598C38.0876 32.0605 38.2765 31.873 38.2765 31.6439V22.3311C38.2765 22.1033 38.089 21.9158 37.8598 21.9158L27.5565 21.9144L26.6578 22.9381H35.6513C36.4318 22.9381 37.0666 23.5728 37.0666 24.3534L37.0638 32.0608L37.0653 32.0605ZM22.0674 22.938L22.0604 21.9172H21.4118C21.184 21.9172 20.9951 22.1047 20.9951 22.3325V22.938H22.0674Z" fill="#FE5D38"/>
</svg>
