<svg width="57" height="56" viewBox="0 0 57 56" fill="none" xmlns="http://www.w3.org/2000/svg">
<rect x="0.176758" width="56" height="56" rx="28" fill="#FFEFEC"/>
<path d="M14.8226 19.0599H27.415C27.6004 19.0599 27.7504 18.9095 27.7504 18.7244V15.1979C27.7504 15.0124 27.6 14.8624 27.415 14.8624H14.8226C14.6372 14.8624 14.4872 15.0128 14.4872 15.1979V18.7244C14.4872 18.9099 14.6376 19.0599 14.8226 19.0599ZM15.158 15.5333H27.0792V18.3886H15.158V15.5333ZM42.4302 40.0384C44.9931 36.6629 44.7355 31.8154 41.6567 28.7366C40.0617 27.1416 37.9918 26.3043 35.8978 26.2233V18.7244C35.8978 18.7018 35.8956 18.6799 35.8913 18.658C35.8883 18.6445 35.8836 18.6317 35.8792 18.6186C35.8767 18.6109 35.8752 18.6029 35.8719 18.5952C35.8661 18.581 35.858 18.5679 35.85 18.5544C35.8467 18.5489 35.8445 18.5427 35.8409 18.5376C35.8288 18.5193 35.8146 18.5022 35.7993 18.4868L29.9623 12.6498C29.9469 12.6345 29.9298 12.6203 29.9115 12.6082C29.9064 12.6049 29.9006 12.6027 29.8955 12.5994C29.882 12.5914 29.8685 12.5834 29.8539 12.5772C29.8469 12.5743 29.8393 12.5728 29.832 12.5702C29.8185 12.5659 29.8053 12.5608 29.7911 12.5578C29.7695 12.5535 29.7473 12.5513 29.7247 12.5513H12.5122C12.3268 12.5513 12.1768 12.7016 12.1768 12.8867V43.1135C12.1768 43.2989 12.3271 43.4489 12.5122 43.4489H35.5624C37.8644 43.4489 40.0288 42.5525 41.6567 40.9246C41.937 40.6443 42.1933 40.349 42.4269 40.042C42.428 40.0406 42.4291 40.0391 42.4302 40.0376V40.0384ZM42.1615 39.2602C41.9042 38.9025 41.6177 38.5645 41.3052 38.2521C39.7712 36.718 37.7316 35.8734 35.5624 35.8734C33.3932 35.8734 31.3533 36.7184 29.8196 38.2521C29.5071 38.5645 29.2202 38.9025 28.9633 39.2602C26.889 36.172 27.2149 31.9387 29.9429 29.2108C31.4923 27.6614 33.5275 26.8868 35.5628 26.8868C37.598 26.8868 39.6332 27.6614 41.1826 29.2108C43.9102 31.9384 44.2365 36.1716 42.1622 39.2602H42.1615ZM30.0608 13.6974L34.7521 18.3886H30.0608V13.6974ZM12.8476 42.7788V13.2229H29.3896V18.7244C29.3896 18.9099 29.54 19.0599 29.725 19.0599H35.2266V26.2229C33.1326 26.3036 31.0627 27.1412 29.4677 28.7363C26.3886 31.8154 26.1313 36.6629 28.6943 40.0384C28.6954 40.0398 28.6965 40.0409 28.6972 40.0424C28.9308 40.3497 29.187 40.645 29.4673 40.9253C30.2692 41.7272 31.2018 42.3513 32.2165 42.7788H12.8476ZM41.1819 40.4508C39.6806 41.952 37.6848 42.7788 35.562 42.7788C33.4392 42.7788 31.4434 41.952 29.9422 40.4508C29.7429 40.2515 29.5568 40.0442 29.3834 39.83C29.6502 39.4354 29.9553 39.0646 30.2937 38.7266C31.7011 37.3191 33.5721 36.5443 35.562 36.5443C37.552 36.5443 39.4233 37.3191 40.8304 38.7266C41.1687 39.0649 41.4739 39.4354 41.7407 39.83C41.5669 40.0442 41.3808 40.2515 41.1819 40.4508ZM33.1936 33.9718C33.8465 34.6247 34.7043 34.9511 35.562 34.9511C36.4198 34.9511 37.2775 34.6247 37.9305 33.9718C39.2364 32.6658 39.2364 30.5408 37.9305 29.2349C36.6245 27.9289 34.4999 27.9289 33.1936 29.2349C31.8876 30.5408 31.8876 32.6658 33.1936 33.9718ZM35.562 28.9264C36.2479 28.9264 36.9337 29.1874 37.456 29.7097C38.4999 30.754 38.5002 32.453 37.456 33.4973C36.4117 34.5415 34.7123 34.5415 33.6684 33.4973C32.6242 32.453 32.6242 30.754 33.6684 29.7097C34.1907 29.1878 34.8762 28.9264 35.562 28.9264ZM18.3492 21.0582H14.8226C14.6372 21.0582 14.4872 21.2086 14.4872 21.3937V24.9202C14.4872 25.1057 14.6376 25.2557 14.8226 25.2557H18.3492C18.5346 25.2557 18.6846 25.1053 18.6846 24.9202V21.3937C18.6846 21.2082 18.5343 21.0582 18.3492 21.0582ZM18.0138 24.5848H15.1584V21.7291H18.0138V24.5848ZM18.3492 26.2331H14.8226C14.6372 26.2331 14.4872 26.3835 14.4872 26.5686V30.0951C14.4872 30.2806 14.6376 30.4306 14.8226 30.4306H18.3492C18.5346 30.4306 18.6846 30.2802 18.6846 30.0951V26.5686C18.6846 26.3831 18.5343 26.2331 18.3492 26.2331ZM18.0138 29.7597H15.1584V26.9044H18.0138V29.7597ZM18.3492 31.408H14.8226C14.6372 31.408 14.4872 31.5584 14.4872 31.7435V35.2701C14.4872 35.4555 14.6376 35.6055 14.8226 35.6055H18.3492C18.5346 35.6055 18.6846 35.4551 18.6846 35.2701V31.7435C18.6846 31.5581 18.5343 31.408 18.3492 31.408ZM18.0138 34.9346H15.1584V32.0789H18.0138V34.9346ZM18.3492 36.583H14.8226C14.6372 36.583 14.4872 36.7333 14.4872 36.9184V40.445C14.4872 40.6304 14.6376 40.7804 14.8226 40.7804H18.3492C18.5346 40.7804 18.6846 40.63 18.6846 40.445V36.9184C18.6846 36.733 18.5343 36.583 18.3492 36.583ZM18.0138 40.1095H15.1584V37.2538H18.0138V40.1095ZM24.6786 21.939H32.8793C33.0647 21.939 33.2147 22.0893 33.2147 22.2744C33.2147 22.4594 33.0644 22.6098 32.8793 22.6098H24.6786C24.4932 22.6098 24.3432 22.4594 24.3432 22.2744C24.3432 22.0893 24.4935 21.939 24.6786 21.939ZM33.2147 24.0391C33.2147 24.2246 33.0644 24.3746 32.8793 24.3746H20.5749C20.3895 24.3746 20.2395 24.2242 20.2395 24.0391C20.2395 23.8541 20.3899 23.7037 20.5749 23.7037H32.8793C33.0647 23.7037 33.2147 23.8541 33.2147 24.0391ZM28.5432 27.4497C28.5432 27.6351 28.3928 27.7851 28.2077 27.7851H20.5749C20.3895 27.7851 20.2395 27.6347 20.2395 27.4497C20.2395 27.2646 20.3899 27.1142 20.5749 27.1142H28.2077C28.3931 27.1142 28.5432 27.2646 28.5432 27.4497ZM25.9999 29.2141C25.9999 29.3995 25.8495 29.5495 25.6644 29.5495H20.5749C20.3895 29.5495 20.2395 29.3991 20.2395 29.2141C20.2395 29.029 20.3899 28.8786 20.5749 28.8786H25.6644C25.8499 28.8786 25.9999 29.029 25.9999 29.2141ZM25.9999 32.6246C25.9999 32.81 25.8495 32.96 25.6644 32.96H20.5749C20.3895 32.96 20.2395 32.8096 20.2395 32.6246C20.2395 32.4395 20.3899 32.2891 20.5749 32.2891H25.6644C25.8499 32.2891 25.9999 32.4395 25.9999 32.6246ZM25.9999 34.389C25.9999 34.5744 25.8495 34.7244 25.6644 34.7244H20.5749C20.3895 34.7244 20.2395 34.574 20.2395 34.389C20.2395 34.2039 20.3899 34.0535 20.5749 34.0535H25.6644C25.8499 34.0535 25.9999 34.2039 25.9999 34.389ZM25.9999 37.7995C25.9999 37.9849 25.8495 38.1349 25.6644 38.1349H20.5749C20.3895 38.1349 20.2395 37.9845 20.2395 37.7995C20.2395 37.6144 20.3899 37.4641 20.5749 37.4641H25.6644C25.8499 37.4641 25.9999 37.6144 25.9999 37.7995ZM25.9999 39.5639C25.9999 39.7493 25.8495 39.8993 25.6644 39.8993H20.5749C20.3895 39.8993 20.2395 39.7489 20.2395 39.5639C20.2395 39.3788 20.3899 39.2284 20.5749 39.2284H25.6644C25.8499 39.2284 25.9999 39.3788 25.9999 39.5639ZM20.2391 22.2744C20.2391 22.089 20.3895 21.939 20.5746 21.939H23.308C23.4934 21.939 23.6435 22.0893 23.6435 22.2744C23.6435 22.4594 23.4931 22.6098 23.308 22.6098H20.5746C20.3892 22.6098 20.2391 22.4594 20.2391 22.2744ZM15.4292 23.1157C15.3365 22.9551 15.3916 22.75 15.5519 22.6573C15.7125 22.5646 15.9176 22.6197 16.0103 22.7799L16.2731 23.2351L17.2141 22.2941C17.3451 22.1631 17.5575 22.1631 17.6886 22.2941C17.8196 22.4251 17.8196 22.6376 17.6886 22.7686L16.4384 24.0187C16.3753 24.0822 16.2895 24.1169 16.2012 24.1169C16.1866 24.1169 16.172 24.1158 16.1574 24.114C16.0537 24.1005 15.9629 24.0395 15.9107 23.949L15.4292 23.115V23.1157ZM15.4292 28.2906C15.3365 28.13 15.3916 27.9249 15.5519 27.8322C15.7125 27.7395 15.9176 27.7946 16.0103 27.9548L16.2731 28.41L17.2141 27.469C17.3451 27.338 17.5575 27.338 17.6886 27.469C17.8196 27.6 17.8196 27.8125 17.6886 27.9435L16.4384 29.1936C16.3753 29.2571 16.2895 29.2918 16.2012 29.2918C16.1866 29.2918 16.172 29.2907 16.1574 29.2889C16.0537 29.2754 15.9629 29.2144 15.9107 29.1239L15.4292 28.2906ZM15.4292 33.4655C15.3365 33.3049 15.3916 33.0998 15.5519 33.0071C15.7125 32.9144 15.9176 32.9695 16.0103 33.1297L16.2731 33.5849L17.2141 32.6439C17.3451 32.5129 17.5575 32.5129 17.6886 32.6439C17.8196 32.7749 17.8196 32.9874 17.6886 33.1184L16.4384 34.3685C16.3753 34.432 16.2895 34.4667 16.2012 34.4667C16.1866 34.4667 16.172 34.4656 16.1574 34.4638C16.0537 34.4503 15.9629 34.3893 15.9107 34.2988L15.4292 33.4655ZM15.4292 38.6404C15.3365 38.4798 15.3916 38.2747 15.5519 38.182C15.7125 38.0893 15.9176 38.1444 16.0103 38.3046L16.2731 38.7598L17.2141 37.8188C17.3451 37.6878 17.5575 37.6878 17.6886 37.8188C17.8196 37.9499 17.8196 38.1623 17.6886 38.2933L16.4384 39.5434C16.3753 39.6069 16.2895 39.6416 16.2012 39.6416C16.1866 39.6416 16.172 39.6405 16.1574 39.6387C16.0537 39.6252 15.9629 39.5642 15.9107 39.4737L15.4292 38.6397V38.6404Z" fill="#FE5D38"/>
</svg>
