<svg width="57" height="56" viewBox="0 0 57 56" fill="none" xmlns="http://www.w3.org/2000/svg">
<rect x="0.287109" width="56" height="56" rx="28" fill="#FFEFEC"/>
<path d="M21.6396 34.4649C21.3396 34.1647 21.1711 33.7577 21.1711 33.3333C21.1711 32.909 21.3396 32.502 21.6396 32.2018C21.8879 31.9548 22.0848 31.661 22.2188 31.3375C22.3529 31.0139 22.4214 30.6669 22.4204 30.3167V30.1333H22.9538C23.0952 30.1333 23.2309 30.0772 23.3309 29.9771C23.4309 29.8771 23.4871 29.7415 23.4871 29.6V27.8145C26.8379 27.0278 29.3538 23.8229 29.3538 20C29.3538 15.5888 26.0042 12.0001 21.8871 12.0001C17.77 12.0001 14.4205 15.5888 14.4205 20C14.4205 23.8229 16.9363 27.0276 20.2871 27.8145V29.6C20.2871 29.7415 20.3433 29.8771 20.4433 29.9771C20.5433 30.0772 20.679 30.1333 20.8204 30.1333H21.3538V30.3167C21.3525 30.7406 21.1842 31.1469 20.8853 31.4475C20.3853 31.9478 20.1044 32.6261 20.1044 33.3333C20.1044 34.0406 20.3853 34.7189 20.8853 35.2191L22.1346 36.4685C22.4343 36.7688 22.6026 37.1757 22.6026 37.6C22.6026 38.0243 22.4343 38.4312 22.1346 38.7315L20.8853 39.9809C20.6376 40.2285 20.4412 40.5225 20.3071 40.8461C20.1731 41.1696 20.1041 41.5164 20.1041 41.8667C20.1041 42.2169 20.1731 42.5637 20.3071 42.8873C20.4412 43.2108 20.6376 43.5048 20.8853 43.7525L20.9766 43.8438C21.0262 43.8933 21.085 43.9326 21.1497 43.9594C21.2144 43.9862 21.2837 44 21.3538 44C21.4238 44 21.4932 43.9862 21.5579 43.9594C21.6226 43.9326 21.6814 43.8933 21.7309 43.8438C21.7804 43.7943 21.8197 43.7355 21.8465 43.6708C21.8733 43.606 21.8871 43.5367 21.8871 43.4667C21.8871 43.3966 21.8733 43.3273 21.8465 43.2626C21.8197 43.1978 21.7804 43.139 21.7309 43.0895L21.6396 42.9982C21.491 42.8496 21.3731 42.6732 21.2926 42.4791C21.2122 42.2849 21.1708 42.0768 21.1708 41.8667C21.1708 41.6565 21.2122 41.4484 21.2926 41.2543C21.3731 41.0601 21.491 40.8837 21.6396 40.7351L22.8889 39.4858C23.3883 38.9853 23.6688 38.3071 23.6688 37.6C23.6688 36.8929 23.3883 36.2147 22.8889 35.7142L21.6396 34.4649ZM15.4871 20C15.4871 16.177 18.3581 13.0667 21.8871 13.0667C25.4161 13.0667 28.2871 16.177 28.2871 20C28.2871 23.8231 25.4161 26.9334 21.8871 26.9334C18.3581 26.9334 15.4871 23.8231 15.4871 20ZM21.8871 28C22.0664 28 22.2442 27.9928 22.4204 27.9794V29.0667H21.3538V27.9794C21.53 27.9928 21.7078 28 21.8871 28Z" fill="#FE5D38"/>
<path d="M18.6572 16.02C18.5474 15.9309 18.4067 15.8891 18.266 15.9037C18.1254 15.9183 17.9963 15.9882 17.9071 16.098C17.0306 17.2098 16.5539 18.5843 16.5539 20C16.5539 21.4158 17.0306 22.7903 17.9071 23.9021C17.9962 24.0119 18.1254 24.0819 18.266 24.0965C18.4067 24.1111 18.5475 24.0693 18.6573 23.9802C18.7672 23.891 18.8371 23.7619 18.8517 23.6212C18.8664 23.4805 18.8245 23.3398 18.7354 23.23C18.0131 22.3082 17.6205 21.171 17.6205 20C17.6205 18.8289 18.0131 17.6917 18.7354 16.77C18.8244 16.6601 18.8662 16.5194 18.8515 16.3788C18.8369 16.2382 18.767 16.1091 18.6572 16.02Z" fill="#FE5D38"/>
<path d="M43.2204 29.6C43.2204 25.1888 39.8709 21.6 35.7537 21.6C31.6366 21.6 28.2871 25.1888 28.2871 29.6C28.2871 33.4229 30.803 36.6275 34.1538 37.4145V39.2C34.1538 39.3414 34.2099 39.4771 34.31 39.5771C34.41 39.6771 34.5456 39.7333 34.6871 39.7333H35.2204V40.45C35.2192 40.8739 35.0508 41.2802 34.7519 41.5809C34.5036 41.8279 34.3067 42.1218 34.1726 42.4455C34.0386 42.7692 33.9701 43.1163 33.9711 43.4667C33.9711 43.6081 34.0273 43.7438 34.1273 43.8438C34.2273 43.9438 34.363 44 34.5044 44C34.6459 44 34.7815 43.9438 34.8815 43.8438C34.9816 43.7438 35.0378 43.6081 35.0378 43.4667C35.0371 43.2564 35.0782 43.0482 35.1586 42.854C35.239 42.6597 35.3572 42.4834 35.5062 42.3351C35.7546 42.0881 35.9514 41.7944 36.0855 41.4708C36.2195 41.1472 36.288 40.8002 36.2871 40.45V39.7333H36.8204C36.9619 39.7333 37.0975 39.6771 37.1975 39.5771C37.2976 39.4771 37.3537 39.3414 37.3537 39.2V37.4145C40.7045 36.6275 43.2204 33.4229 43.2204 29.6ZM29.3538 29.6C29.3538 25.777 32.2248 22.6667 35.7537 22.6667C39.2827 22.6667 42.1537 25.777 42.1537 29.6C42.1537 33.4231 39.2827 36.5333 35.7537 36.5333C32.2248 36.5333 29.3538 33.4231 29.3538 29.6ZM36.2871 38.6667H35.2204V37.5794C35.3966 37.5927 35.5744 37.6 35.7537 37.6C35.9331 37.6 36.1109 37.5928 36.2871 37.5794V38.6667Z" fill="#FE5D38"/>
<path d="M13.8871 15.2C14.2036 15.2 14.5129 15.1062 14.776 14.9304C15.0392 14.7546 15.2442 14.5047 15.3653 14.2123C15.4864 13.92 15.5181 13.5983 15.4564 13.2879C15.3946 12.9775 15.2423 12.6924 15.0185 12.4687C14.7947 12.2449 14.5096 12.0925 14.1993 12.0308C13.8889 11.9691 13.5672 12.0007 13.2748 12.1218C12.9825 12.2429 12.7326 12.448 12.5568 12.7111C12.381 12.9743 12.2871 13.2836 12.2871 13.6C12.2876 14.0242 12.4564 14.4309 12.7563 14.7309C13.0563 15.0308 13.4629 15.1996 13.8871 15.2ZM13.8871 13.0667C13.9926 13.0667 14.0957 13.098 14.1834 13.1566C14.2711 13.2152 14.3395 13.2985 14.3799 13.396C14.4202 13.4934 14.4308 13.6006 14.4102 13.7041C14.3896 13.8076 14.3388 13.9026 14.2642 13.9772C14.1897 14.0518 14.0946 14.1026 13.9912 14.1231C13.8877 14.1437 13.7805 14.1332 13.683 14.0928C13.5856 14.0524 13.5023 13.9841 13.4437 13.8964C13.3851 13.8086 13.3538 13.7055 13.3538 13.6C13.354 13.4586 13.4102 13.3231 13.5102 13.2231C13.6102 13.1231 13.7457 13.0669 13.8871 13.0667Z" fill="#FE5D38"/>
<path d="M41.1518 15.3562L37.9518 12.1563C37.9023 12.1067 37.8435 12.0674 37.7788 12.0406C37.7141 12.0138 37.6447 12 37.5746 12C37.5046 12 37.4352 12.0138 37.3705 12.0406C37.3058 12.0674 37.247 12.1067 37.1975 12.1563L35.689 13.6647C35.6395 13.7142 35.6002 13.773 35.5734 13.8377C35.5466 13.9025 35.5328 13.9718 35.5328 14.0418C35.5328 14.1119 35.5466 14.1812 35.5734 14.246C35.6002 14.3107 35.6395 14.3695 35.689 14.419L38.889 17.619C38.9385 17.6685 38.9973 17.7078 39.062 17.7346C39.1268 17.7614 39.1961 17.7752 39.2662 17.7752C39.3362 17.7752 39.4056 17.7614 39.4703 17.7346C39.535 17.7078 39.5938 17.6685 39.6433 17.619L41.1518 16.1105C41.2013 16.061 41.2406 16.0022 41.2674 15.9375C41.2942 15.8728 41.308 15.8034 41.308 15.7334C41.308 15.6633 41.2942 15.594 41.2674 15.5293C41.2406 15.4646 41.2013 15.4058 41.1518 15.3562ZM39.2662 16.4876L36.8204 14.0418L37.5746 13.2876L40.0204 15.7334L39.2662 16.4876Z" fill="#FE5D38"/>
<path d="M42.6871 21.6C43.0035 21.6 43.3129 21.5062 43.576 21.3304C43.8391 21.1546 44.0442 20.9047 44.1653 20.6123C44.2864 20.32 44.3181 19.9983 44.2563 19.6879C44.1946 19.3775 44.0422 19.0924 43.8184 18.8687C43.5947 18.6449 43.3096 18.4925 42.9992 18.4308C42.6888 18.369 42.3671 18.4007 42.0748 18.5218C41.7824 18.6429 41.5325 18.848 41.3567 19.1111C41.1809 19.3742 41.0871 19.6836 41.0871 20C41.0876 20.4242 41.2563 20.8309 41.5562 21.1309C41.8562 21.4308 42.2629 21.5995 42.6871 21.6ZM42.6871 19.4667C42.7925 19.4667 42.8957 19.498 42.9834 19.5566C43.0711 19.6152 43.1394 19.6985 43.1798 19.7959C43.2202 19.8934 43.2307 20.0006 43.2102 20.1041C43.1896 20.2075 43.1388 20.3026 43.0642 20.3772C42.9896 20.4517 42.8946 20.5025 42.7911 20.5231C42.6877 20.5437 42.5804 20.5331 42.483 20.4928C42.3855 20.4524 42.3022 20.384 42.2436 20.2963C42.185 20.2086 42.1537 20.1055 42.1537 20C42.1539 19.8586 42.2101 19.7231 42.3101 19.6231C42.4101 19.5231 42.5457 19.4669 42.6871 19.4667Z" fill="#FE5D38"/>
<path d="M33.4642 16.7353L31.9557 18.2438C31.8557 18.3438 31.7995 18.4795 31.7995 18.6209C31.7995 18.7624 31.8557 18.8981 31.9557 18.9981C32.0557 19.0981 32.1914 19.1543 32.3329 19.1543C32.4743 19.1543 32.61 19.0981 32.71 18.9981L34.2185 17.4896C34.268 17.4401 34.3073 17.3813 34.3341 17.3166C34.3609 17.2519 34.3747 17.1825 34.3747 17.1125C34.3747 17.0424 34.3609 16.9731 34.3341 16.9084C34.3073 16.8436 34.268 16.7848 34.2185 16.7353C34.169 16.6858 34.1102 16.6465 34.0454 16.6197C33.9807 16.5929 33.9114 16.5791 33.8413 16.5791C33.7713 16.5791 33.7019 16.5929 33.6372 16.6197C33.5725 16.6465 33.5137 16.6858 33.4642 16.7353Z" fill="#FE5D38"/>
<path d="M13.6662 27.1543C13.7157 27.2038 13.7745 27.2431 13.8392 27.2699C13.9039 27.2967 13.9733 27.3105 14.0433 27.3105C14.1134 27.3105 14.1827 27.2967 14.2474 27.2699C14.3121 27.2431 14.3709 27.2038 14.4205 27.1543L15.1747 26.4C15.2242 26.3505 15.2635 26.2917 15.2903 26.227C15.3171 26.1623 15.3309 26.0929 15.3309 26.0229C15.3309 25.9529 15.3171 25.8835 15.2903 25.8188C15.2635 25.7541 15.2242 25.6953 15.1747 25.6458C15.1252 25.5962 15.0664 25.5569 15.0017 25.5301C14.937 25.5033 14.8676 25.4895 14.7976 25.4895C14.7276 25.4895 14.6582 25.5033 14.5935 25.5301C14.5288 25.5569 14.47 25.5962 14.4205 25.6458L13.6662 26.4C13.6167 26.4495 13.5774 26.5083 13.5506 26.5731C13.5238 26.6378 13.51 26.7071 13.51 26.7772C13.51 26.8472 13.5238 26.9166 13.5506 26.9813C13.5774 27.046 13.6167 27.1048 13.6662 27.1543Z" fill="#FE5D38"/>
<path d="M16.0205 36C16.0905 36.0001 16.1599 35.9864 16.2246 35.9595C16.2893 35.9327 16.3481 35.8934 16.3976 35.8438L17.9061 34.3353C17.9556 34.2858 17.9949 34.227 18.0217 34.1623C18.0485 34.0976 18.0623 34.0282 18.0623 33.9582C18.0623 33.8882 18.0485 33.8188 18.0217 33.7541C17.9949 33.6894 17.9556 33.6306 17.9061 33.5811L14.7061 30.3811C14.6565 30.3316 14.5977 30.2923 14.533 30.2655C14.4683 30.2387 14.399 30.2249 14.3289 30.2249C14.2589 30.2249 14.1895 30.2387 14.1248 30.2655C14.0601 30.2923 14.0013 30.3316 13.9518 30.3811L12.4433 31.8895C12.3938 31.9391 12.3545 31.9979 12.3277 32.0626C12.3009 32.1273 12.2871 32.1966 12.2871 32.2667C12.2871 32.3367 12.3009 32.4061 12.3277 32.4708C12.3545 32.5355 12.3938 32.5943 12.4433 32.6438L15.6433 35.8438C15.6928 35.8934 15.7516 35.9327 15.8163 35.9595C15.881 35.9864 15.9504 36.0001 16.0205 36ZM14.3289 31.5125L16.7747 33.9582L16.0205 34.7125L13.5747 32.2667L14.3289 31.5125Z" fill="#FE5D38"/>
<path d="M16.5538 39.7333C16.2373 39.7333 15.928 39.8272 15.6649 40.003C15.4018 40.1788 15.1967 40.4287 15.0756 40.721C14.9545 41.0134 14.9228 41.3351 14.9845 41.6455C15.0463 41.9558 15.1987 42.2409 15.4224 42.4647C15.6462 42.6885 15.9313 42.8408 16.2416 42.9026C16.552 42.9643 16.8737 42.9326 17.1661 42.8115C17.4584 42.6904 17.7083 42.4854 17.8841 42.2222C18.0599 41.9591 18.1538 41.6498 18.1538 41.3333C18.1533 40.9091 17.9846 40.5025 17.6846 40.2025C17.3847 39.9026 16.978 39.7338 16.5538 39.7333ZM16.5538 41.8667C16.4483 41.8667 16.3452 41.8354 16.2575 41.7768C16.1698 41.7182 16.1014 41.6349 16.0611 41.5374C16.0207 41.44 16.0101 41.3327 16.0307 41.2293C16.0513 41.1258 16.1021 41.0308 16.1767 40.9562C16.2513 40.8816 16.3463 40.8308 16.4497 40.8102C16.5532 40.7897 16.6604 40.8002 16.7579 40.8406C16.8553 40.881 16.9386 40.9493 16.9972 41.037C17.0558 41.1247 17.0871 41.2278 17.0871 41.3333C17.087 41.4747 17.0307 41.6103 16.9307 41.7103C16.8307 41.8103 16.6952 41.8665 16.5538 41.8667Z" fill="#FE5D38"/>
<path d="M26.7518 33.9314C26.8014 33.8819 26.8407 33.8231 26.8675 33.7584C26.8943 33.6937 26.9081 33.6243 26.9081 33.5542C26.9081 33.4842 26.8943 33.4148 26.8675 33.3501C26.8407 33.2854 26.8014 33.2266 26.7518 33.1771L25.2434 31.6686C25.1433 31.5686 25.0077 31.5124 24.8662 31.5124C24.7247 31.5124 24.5891 31.5686 24.489 31.6686C24.389 31.7686 24.3328 31.9043 24.3328 32.0458C24.3328 32.1872 24.389 32.3229 24.489 32.4229L25.9975 33.9314C26.047 33.9809 26.1058 34.0202 26.1705 34.0471C26.2353 34.0739 26.3046 34.0877 26.3747 34.0877C26.4447 34.0877 26.5141 34.0739 26.5788 34.0471C26.6435 34.0202 26.7023 33.9809 26.7518 33.9314Z" fill="#FE5D38"/>
<path d="M28.6642 39.0059C28.6147 38.9564 28.5559 38.9171 28.4912 38.8903C28.4265 38.8635 28.3571 38.8497 28.2871 38.8497C28.2171 38.8497 28.1477 38.8635 28.083 38.8903C28.0183 38.9171 27.9595 38.9564 27.91 39.0059L26.4015 40.5145C26.3015 40.6145 26.2453 40.7501 26.2453 40.8916C26.2453 41.033 26.3015 41.1686 26.4015 41.2687L27.91 42.7771C27.9595 42.8267 28.0183 42.8659 28.083 42.8927C28.1477 42.9195 28.2171 42.9333 28.2871 42.9333C28.3571 42.9333 28.4265 42.9195 28.4912 42.8927C28.5559 42.8659 28.6147 42.8267 28.6642 42.7771L30.1727 41.2687C30.2727 41.1686 30.3289 41.033 30.3289 40.8916C30.3289 40.7501 30.2727 40.6145 30.1727 40.5145L28.6642 39.0059ZM28.2871 41.6458L27.5329 40.8915L28.2871 40.1373L29.0413 40.8915L28.2871 41.6458Z" fill="#FE5D38"/>
<path d="M42.6224 37.3144C42.5729 37.2649 42.5141 37.2256 42.4494 37.1988C42.3847 37.172 42.3153 37.1582 42.2453 37.1582C42.1752 37.1582 42.1059 37.172 42.0412 37.1988C41.9765 37.2256 41.9177 37.2649 41.8681 37.3144L38.6681 40.5144C38.6186 40.5639 38.5793 40.6227 38.5525 40.6874C38.5257 40.7521 38.5119 40.8215 38.5119 40.8915C38.5119 40.9616 38.5257 41.0309 38.5525 41.0956C38.5793 41.1603 38.6186 41.2191 38.6681 41.2687L40.1766 42.7771C40.2261 42.8267 40.2849 42.8659 40.3496 42.8927C40.4143 42.9195 40.4837 42.9333 40.5537 42.9333C40.6238 42.9333 40.6931 42.9195 40.7578 42.8927C40.8225 42.8659 40.8813 42.8267 40.9309 42.7771L44.1309 39.5771C44.1804 39.5276 44.2197 39.4688 44.2465 39.4041C44.2733 39.3394 44.2871 39.27 44.2871 39.2C44.2871 39.13 44.2733 39.0606 44.2465 38.9959C44.2197 38.9312 44.1804 38.8724 44.1309 38.8229L42.6224 37.3144ZM40.5537 41.6458L39.7995 40.8915L42.2453 38.4458L42.9995 39.2L40.5537 41.6458Z" fill="#FE5D38"/>
<path d="M29.6662 12.3125C29.6166 12.362 29.5773 12.4208 29.5505 12.4855C29.5237 12.5502 29.5099 12.6195 29.5099 12.6896C29.5099 12.7596 29.5237 12.829 29.5505 12.8937C29.5773 12.9584 29.6166 13.0172 29.6662 13.0667L30.4204 13.821C30.47 13.8705 30.5287 13.9098 30.5935 13.9366C30.6582 13.9634 30.7275 13.9772 30.7976 13.9772C30.8676 13.9772 30.937 13.9634 31.0017 13.9366C31.0664 13.9098 31.1252 13.8705 31.1747 13.821C31.2242 13.7715 31.2635 13.7127 31.2903 13.648C31.3171 13.5832 31.3309 13.5139 31.3309 13.4438C31.3309 13.3738 31.3171 13.3045 31.2903 13.2397C31.2635 13.175 31.2242 13.1162 31.1747 13.0667L30.4204 12.3125C30.3709 12.2629 30.3121 12.2236 30.2474 12.1968C30.1827 12.17 30.1133 12.1562 30.0433 12.1562C29.9733 12.1562 29.9039 12.17 29.8392 12.1968C29.7745 12.2236 29.7157 12.2629 29.6662 12.3125Z" fill="#FE5D38"/>
<path d="M32.5238 25.7872C32.4694 25.7431 32.4069 25.7101 32.3398 25.6901C32.2726 25.6702 32.2022 25.6636 32.1326 25.6709C32.0629 25.6781 31.9953 25.699 31.9338 25.7324C31.8722 25.7657 31.8178 25.8109 31.7736 25.8653C30.8971 26.9771 30.4204 28.3516 30.4204 29.7673C30.4204 31.1831 30.8971 32.5576 31.7736 33.6694C31.8178 33.7238 31.8722 33.769 31.9338 33.8023C31.9953 33.8357 32.0629 33.8566 32.1326 33.8638C32.2022 33.8711 32.2726 33.8645 32.3398 33.8446C32.4069 33.8246 32.4694 33.7916 32.5238 33.7475C32.5782 33.7033 32.6234 33.6489 32.6567 33.5873C32.6901 33.5258 32.711 33.4582 32.7182 33.3885C32.7255 33.3189 32.7189 33.2485 32.699 33.1813C32.679 33.1142 32.646 33.0517 32.6019 32.9973C31.8796 32.0756 31.487 30.9383 31.487 29.7673C31.487 28.5962 31.8796 27.459 32.6019 26.5373C32.691 26.4275 32.7328 26.2867 32.7182 26.1461C32.7035 26.0054 32.6336 25.8764 32.5238 25.7872Z" fill="#FE5D38"/>
</svg>
