<svg width="57" height="56" viewBox="0 0 57 56" fill="none" xmlns="http://www.w3.org/2000/svg">
<rect x="0.176758" width="56" height="56" rx="28" fill="#FFEFEC"/>
<path d="M19.2562 23.8875H15.261C14.9196 23.8875 14.6422 24.1653 14.6422 24.5064V25.7407C14.6422 26.0821 14.9199 26.3596 15.261 26.3596H19.2562C19.5977 26.3596 19.8751 26.0818 19.8751 25.7407V24.5064C19.8751 24.165 19.5973 23.8875 19.2562 23.8875ZM19.2353 25.7198H15.2823V24.5277H19.2353V25.7198ZM19.2562 27.6307H15.261C14.9196 27.6307 14.6422 27.9085 14.6422 28.2496V29.4838C14.6422 29.8253 14.9199 30.1027 15.261 30.1027H19.2562C19.5977 30.1027 19.8751 29.825 19.8751 29.4838V28.2496C19.8751 27.9081 19.5973 27.6307 19.2562 27.6307ZM19.2353 29.463H15.2823V28.2708H19.2353V29.463ZM19.2562 31.3742H15.261C14.9196 31.3742 14.6422 31.652 14.6422 31.9931V33.2274C14.6422 33.5688 14.9199 33.8462 15.261 33.8462H19.2562C19.5977 33.8462 19.8751 33.5685 19.8751 33.2274V31.9931C19.8751 31.6516 19.5973 31.3742 19.2562 31.3742ZM19.2353 33.2065H15.2823V32.0143H19.2353V33.2065ZM26.6458 23.8875H22.6506C22.3091 23.8875 22.0317 24.1653 22.0317 24.5064V25.7407C22.0317 26.0821 22.3095 26.3596 22.6506 26.3596H26.6458C26.9872 26.3596 27.2646 26.0818 27.2646 25.7407V24.5064C27.2646 24.165 26.9869 23.8875 26.6458 23.8875ZM26.6249 25.7198H22.6718V24.5277H26.6249V25.7198ZM26.6458 27.6307H22.6506C22.3091 27.6307 22.0317 27.9085 22.0317 28.2496V29.4838C22.0317 29.8253 22.3095 30.1027 22.6506 30.1027H26.6458C26.9872 30.1027 27.2646 29.825 27.2646 29.4838V28.2496C27.2646 27.9081 26.9869 27.6307 26.6458 27.6307ZM26.6249 29.463H22.6718V28.2708H26.6249V29.463ZM26.6458 31.3742H22.6506C22.3091 31.3742 22.0317 31.652 22.0317 31.9931V33.2274C22.0317 33.5688 22.3095 33.8462 22.6506 33.8462H26.6458C26.9872 33.8462 27.2646 33.5685 27.2646 33.2274V31.9931C27.2646 31.6516 26.9869 31.3742 26.6458 31.3742ZM26.6249 33.2065H22.6718V32.0143H26.6249V33.2065ZM37.1192 25.6189V18.8603C37.1192 17.7521 36.2177 16.8506 35.1095 16.8506H34.4088V16.5505C34.4088 16.0444 33.997 15.6323 33.4906 15.6323H30.1651C29.659 15.6323 29.2469 16.0441 29.2469 16.5505V16.8506H20.0488V16.5505C20.0488 16.0444 19.637 15.6323 19.1309 15.6323H15.8054C15.2993 15.6323 14.8872 16.0441 14.8872 16.5505V16.8506H14.1865C13.0783 16.8506 12.1768 17.7521 12.1768 18.8603V34.6792C12.1768 35.7874 13.0783 36.6889 14.1865 36.6889H30.4171C31.6963 38.8867 34.0774 40.3677 36.7987 40.3677C40.8669 40.3677 44.1768 37.0579 44.1768 32.9896C44.1768 29.0286 41.0389 25.787 37.1186 25.6189H37.1192ZM29.8874 16.5505C29.8874 16.3974 30.012 16.2724 30.1655 16.2724H33.4909C33.6441 16.2724 33.7691 16.397 33.7691 16.5505V17.7904C33.7691 17.9435 33.6444 18.0685 33.4909 18.0685H30.1655C30.0123 18.0685 29.8874 17.9439 29.8874 17.7904V16.5505ZM15.5276 16.5505C15.5276 16.3974 15.6523 16.2724 15.8058 16.2724H19.1312C19.2844 16.2724 19.4093 16.397 19.4093 16.5505V17.7904C19.4093 17.9435 19.2847 18.0685 19.1312 18.0685H15.8058C15.6526 18.0685 15.5276 17.9439 15.5276 17.7904V16.5505ZM12.8172 18.8603C12.8172 18.105 13.4316 17.4907 14.1869 17.4907H14.8875V17.7907C14.8875 18.2968 15.2993 18.7089 15.8058 18.7089H19.1312C19.6373 18.7089 20.0491 18.2972 20.0491 17.7907V17.4907H29.2473V17.7907C29.2473 18.2968 29.659 18.7089 30.1655 18.7089H33.4909C33.997 18.7089 34.4092 18.2972 34.4092 17.7907V17.4907H35.1098C35.8651 17.4907 36.4795 18.105 36.4795 18.8603V21.0448H12.8172V18.8603ZM14.1869 36.0488C13.4316 36.0488 12.8172 35.4345 12.8172 34.6792V21.6849H36.4791V25.6189C35.8352 25.6464 35.2122 25.7567 34.6208 25.9398C34.642 25.8771 34.6542 25.8103 34.6542 25.7407V24.5064C34.6542 24.165 34.3764 23.8875 34.0353 23.8875H30.0402C29.6991 23.8875 29.4213 24.1653 29.4213 24.5064V25.7407C29.4213 26.0821 29.6991 26.3596 30.0402 26.3596H33.564C32.8898 26.6899 32.273 27.1201 31.7332 27.6307H30.0402C29.6991 27.6307 29.4213 27.9085 29.4213 28.2496V29.4838C29.4213 29.8149 29.683 30.0853 30.0102 30.1013C29.6312 30.9889 29.4213 31.9649 29.4213 32.9893C29.4213 34.0801 29.6594 35.116 30.0861 36.0485L14.1869 36.0488ZM34.0141 25.7198H30.061V24.5277H34.0141V25.7198ZM30.32 29.463H30.061V28.2708H31.1317C30.824 28.6398 30.5518 29.0387 30.32 29.463ZM36.7994 39.7276C33.0841 39.7276 30.0614 36.705 30.0614 32.9896C30.0614 29.2743 33.0837 26.252 36.799 26.2517H36.8004C40.5157 26.2517 43.538 29.2747 43.538 32.9896C43.538 36.7046 40.5154 39.7276 36.8001 39.7276H36.7994ZM36.7994 27.6098C33.8328 27.6098 31.4196 30.0234 31.4196 32.9896C31.4196 35.9559 33.8331 38.3694 36.7994 38.3694C39.7656 38.3694 42.1792 35.9559 42.1792 32.9896C42.1792 30.0234 39.7656 27.6098 36.7994 27.6098ZM36.7994 37.7297C34.1857 37.7297 32.0593 35.6033 32.0593 32.9896C32.0593 30.376 34.1857 28.2496 36.7994 28.2496C39.413 28.2496 41.5394 30.376 41.5394 32.9896C41.5394 35.6033 39.413 37.7297 36.7994 37.7297ZM40.025 32.9896C40.025 33.1665 39.8815 33.3095 39.7051 33.3095H36.7994C36.7144 33.3095 36.633 33.2757 36.5731 33.2159L34.2811 30.9238C34.1561 30.7989 34.1561 30.5963 34.2811 30.4713C34.406 30.3464 34.6086 30.3464 34.7336 30.4713L36.9316 32.6694H39.7047C39.8815 32.6694 40.0246 32.8128 40.0246 32.9893L40.025 32.9896Z" fill="#FE5D38"/>
</svg>
