<svg width="57" height="56" viewBox="0 0 57 56" fill="none" xmlns="http://www.w3.org/2000/svg">
<rect x="0.787109" width="56" height="56" rx="28" fill="#FFEFEC"/>
<path fill-rule="evenodd" clip-rule="evenodd" d="M38.1461 14.152C39.4461 14.152 40.5974 15.1311 40.5974 16.4269V29.8597C42.9877 31.0222 44.5778 33.3707 44.768 36.0234C44.9582 38.6747 43.7194 41.2261 41.5181 42.7176C39.3168 44.2092 36.4878 44.4134 34.0961 43.2537C31.7031 42.094 30.1115 39.7455 29.9185 37.0943H15.2384C13.937 37.0943 12.7871 36.1151 12.7871 34.8207V16.4256C12.7871 15.1312 13.9371 14.1507 15.2384 14.1507H17.7439V13.0771C17.7453 12.4827 18.2258 12.0022 18.8202 12.0008H19.8952C20.4896 12.0022 20.9701 12.4827 20.9715 13.0757V14.1507L32.4129 14.1521V13.0771C32.4143 12.4827 32.8949 12.0022 33.4893 12.0008H34.5642C35.1573 12.0022 35.6392 12.4827 35.6392 13.0757V14.1507L38.1461 14.152ZM40.4627 33.8431L36.1752 38.1292L34.2225 36.1779C34.0128 35.9681 33.6725 35.9681 33.4628 36.1779C33.2517 36.3876 33.2517 36.7278 33.4614 36.9375L35.7961 39.2708C35.8961 39.3722 36.0336 39.4291 36.1766 39.4291C36.3183 39.4291 36.4558 39.3722 36.5558 39.2708L41.2237 34.6029C41.3292 34.5029 41.389 34.3654 41.3904 34.2196C41.3931 34.0751 41.3362 33.9348 41.2334 33.8321C41.1306 33.7307 40.9918 33.6738 40.8459 33.6751C40.7015 33.6765 40.5627 33.7375 40.4627 33.8431ZM39.5211 29.4376V20.8892H13.8636V34.8208C13.9192 35.5278 14.5303 36.0597 15.2386 36.018H29.9186C30.0853 33.7598 31.2686 31.6989 33.138 30.4182C35.006 29.1377 37.3544 28.7765 39.5211 29.4376ZM37.3434 30.1889C35.6546 30.1889 34.0352 30.8597 32.8408 32.0541C31.6464 33.2486 30.9756 34.868 30.9756 36.5568C30.9756 38.2456 31.6464 39.865 32.8408 41.0594C34.0352 42.2524 35.6546 42.9232 37.3434 42.9232C39.0322 42.9232 40.6516 42.2524 41.846 41.0594C43.039 39.865 43.7098 38.2456 43.7098 36.5568C43.7098 34.868 43.039 33.2485 41.846 32.0541C40.6516 30.8597 39.0322 30.1889 37.3434 30.1889ZM17.5553 22.9557C17.2594 22.9557 17.0178 23.196 17.0178 23.4932V26.9487C17.0178 27.0917 17.0747 27.2278 17.1761 27.3292C17.2761 27.4306 17.4136 27.4875 17.5553 27.4875H21.0121C21.1552 27.4875 21.2913 27.4306 21.3927 27.3292C21.4927 27.2292 21.5496 27.0917 21.5496 26.9487V23.4932C21.5496 23.3502 21.4927 23.2141 21.3927 23.1127C21.2913 23.0127 21.1538 22.9557 21.0121 22.9557L17.5553 22.9557ZM18.0941 24.0307V26.4112H20.476V24.0307H18.0941ZM32.3729 22.9557C32.0757 22.9557 31.8354 23.196 31.8354 23.4932V26.9487C31.8354 27.0917 31.8924 27.2278 31.9924 27.3292C32.0938 27.4306 32.2299 27.4875 32.3729 27.4875H35.8284C35.9714 27.4875 36.1089 27.4306 36.2089 27.3292C36.3103 27.2292 36.3673 27.0917 36.3673 26.9487V23.4932C36.3673 23.196 36.1256 22.9557 35.8284 22.9557H32.3729ZM35.2909 24.0307H32.9118V26.4112H35.2923L35.2909 24.0307ZM24.9648 29.4222C24.8218 29.4222 24.6843 29.4791 24.5843 29.5791C24.4829 29.6805 24.4259 29.818 24.4259 29.9596V33.4165C24.4259 33.5582 24.4829 33.6956 24.5843 33.7956C24.6857 33.897 24.8218 33.954 24.9648 33.954H28.4203C28.7175 33.954 28.9577 33.7123 28.9577 33.4165V29.9596C28.9577 29.818 28.9008 29.6805 28.8008 29.5791C28.6994 29.4791 28.5633 29.4222 28.4203 29.4222L24.9648 29.4222ZM27.8828 30.4971H25.5023V32.879H27.8841V30.4957L27.8828 30.4971ZM24.9648 22.9557C24.8218 22.9557 24.6856 23.0126 24.5843 23.1126C24.4829 23.214 24.4259 23.3501 24.4259 23.4932V26.9486C24.4259 27.0917 24.4829 27.2292 24.5843 27.3292C24.6843 27.4305 24.8218 27.4875 24.9648 27.4875H28.4203C28.5633 27.4875 28.6994 27.4305 28.8008 27.3292C28.9008 27.2278 28.9577 27.0917 28.9577 26.9486V23.4932C28.9577 23.1959 28.7175 22.9557 28.4203 22.9557L24.9648 22.9557ZM25.5023 24.0306V26.4111H27.8841V24.0306H25.5023ZM17.5553 29.4221C17.2594 29.4221 17.0192 29.6624 17.0178 29.9582V33.4136C17.0178 33.7109 17.2595 33.9511 17.5553 33.9511H21.0121C21.1538 33.9525 21.2913 33.8956 21.3927 33.7942C21.4927 33.6942 21.5496 33.5567 21.5496 33.4136V29.9582C21.5496 29.661 21.3079 29.4221 21.0121 29.4221L17.5553 29.4221ZM20.4732 30.497H18.0941V32.8789H20.476V30.4957L20.4732 30.497ZM15.2385 15.2268C14.5302 15.1865 13.9192 15.7184 13.8636 16.4254V19.8127L39.5211 19.8141V16.4254C39.4655 15.7184 38.8544 15.1865 38.1461 15.2268H35.6392V16.3031C35.6392 16.8962 35.1573 17.3767 34.5643 17.3781H33.4893C32.8949 17.3767 32.4144 16.8961 32.413 16.3031V15.2268H20.9716V16.3031C20.9702 16.8962 20.4896 17.3767 19.8952 17.3781H18.8203C18.2259 17.3781 17.7453 16.8961 17.744 16.3031V15.2268L15.2385 15.2268ZM34.5641 13.0768H33.4892V16.3031H34.5641V13.0768ZM19.8951 13.0768H18.8202V16.3031H19.8951V13.0768Z" fill="#FE5D38"/>
</svg>
