<svg width="57" height="56" viewBox="0 0 57 56" fill="none" xmlns="http://www.w3.org/2000/svg">
<rect x="0.84375" width="56" height="56" rx="28" fill="#FFEFEC"/>
<path d="M34.7211 26.3947C33.1737 24.9207 30.6621 24.9207 29.1144 26.3947L28.8434 26.6559L28.568 26.3962C27.0206 24.9221 24.509 24.9221 22.9613 26.3962C22.206 27.1148 21.7909 28.0763 21.7909 29.107C21.7909 30.1334 22.2059 31.0949 22.9613 31.8178L28.4661 37.0699C28.5706 37.1716 28.7047 37.2224 28.8417 37.2224C28.9786 37.2224 29.1128 37.1716 29.2173 37.0699L34.722 31.8178C35.4774 31.0991 35.8925 30.1377 35.8925 29.107C35.8911 28.0763 35.476 27.1148 34.7206 26.3947L34.7211 26.3947ZM33.9729 31.0284L28.8436 35.9264L23.7144 31.0284C23.1764 30.5145 22.8799 29.8326 22.8799 29.1026C22.8799 28.3727 23.1764 27.6893 23.7144 27.1768C24.2819 26.6347 25.026 26.3678 25.7672 26.3678C26.5113 26.3678 27.2568 26.6389 27.8201 27.1768L28.4668 27.7952C28.6758 27.9943 29.0047 27.9943 29.2151 27.7952L29.8618 27.1768C30.9927 26.0967 32.8366 26.0967 33.9717 27.1768C34.5097 27.6908 34.8062 28.3727 34.8062 29.1026C34.8076 29.8326 34.5108 30.516 33.9729 31.0284ZM43.8435 25.7778V33.0504C43.8435 34.1531 42.947 35.0496 41.8443 35.0496L41.6749 35.0482V41.0008C41.6749 42.1035 40.7783 43 39.6757 43H36.8053C35.7026 43 34.8061 42.1034 34.8061 41.0008L34.8075 34.506C34.8075 34.2067 35.0503 33.9638 35.3496 33.9638C35.649 33.9638 35.8918 34.2067 35.8918 34.506V41.0008C35.8918 41.5062 36.2998 41.9157 36.8067 41.9157H39.6771C40.1825 41.9157 40.5919 41.5076 40.5919 41.0008L40.5905 34.506C40.5905 34.2067 40.8334 33.9638 41.1327 33.9638H41.8443C42.3498 33.9638 42.7592 33.5558 42.7592 33.049V25.7778C42.7592 24.1146 41.4038 22.7592 39.7406 22.7592H36.7403C35.7717 22.7592 34.8865 23.2067 34.3147 23.9847C34.1382 24.2275 33.7979 24.2769 33.5551 24.1004C33.3122 23.924 33.2628 23.5837 33.4393 23.3408C34.2088 22.296 35.4414 21.6748 36.7389 21.6748H39.7392C42.0038 21.6748 43.8435 23.5143 43.8435 25.7778ZM22.8798 34.5059V41.0007C22.8798 42.1034 21.9832 42.9999 20.8806 42.9999H18.0102C16.9075 42.9999 16.011 42.1033 16.011 41.0007L16.0124 35.0481H15.843C14.7403 35.0481 13.8438 34.1515 13.8438 33.0488V25.7777C13.8438 23.5144 15.6834 21.6746 17.9469 21.6746H20.9471C22.2404 21.6746 23.4772 22.2958 24.2467 23.3406C24.4232 23.5835 24.3738 23.9195 24.1352 24.1002C23.8923 24.2767 23.5535 24.2273 23.3756 23.9887C22.7967 23.2079 21.9114 22.7632 20.9471 22.7632H17.9468C16.2836 22.7632 14.9282 24.1186 14.9282 25.7818V33.0544C14.9282 33.5599 15.3362 33.9693 15.8431 33.9693L16.5547 33.9679C16.854 33.9679 17.0969 34.2107 17.0969 34.5101V41.0048C17.0969 41.5103 17.5049 41.9197 18.0117 41.9197H20.8821C21.3876 41.9197 21.797 41.5117 21.797 41.0048L21.7956 34.5061C21.7956 34.2068 22.0384 33.9639 22.3377 33.9639C22.6371 33.9639 22.8798 34.2066 22.8798 34.5059ZM19.0846 20.5903H19.8075C21.5032 20.5903 22.8798 19.2137 22.8798 17.518V14.9767C22.8798 13.8853 21.9945 13 20.9031 13H17.9904C16.899 13 16.0137 13.8852 16.0137 14.9767L16.0123 17.518C16.0123 19.2137 17.3889 20.5903 19.0846 20.5903ZM17.0967 14.9767C17.0967 14.4854 17.4977 14.0844 17.989 14.0844H20.9017C21.3931 14.0844 21.7941 14.4854 21.7941 14.9767L21.7955 17.5181C21.7955 18.6137 20.9032 19.5061 19.8076 19.5061H19.0847C17.9891 19.5061 17.0967 18.6137 17.0967 17.5181L17.0967 14.9767ZM37.8797 20.5903H38.6026C40.2983 20.5903 41.6749 19.2137 41.6749 17.518V14.9767C41.6749 13.8853 40.7896 13 39.6982 13H36.7855C35.6941 13 34.8088 13.8852 34.8088 14.9767L34.8074 17.518C34.8074 19.2137 36.184 20.5903 37.8797 20.5903ZM35.8918 14.9767C35.8918 14.4854 36.2927 14.0844 36.7841 14.0844H39.6968C40.1882 14.0844 40.5891 14.4854 40.5891 14.9767L40.5906 17.5181C40.5906 18.6137 39.6982 19.5061 38.6026 19.5061H37.8797C36.7841 19.5061 35.8918 18.6137 35.8918 17.5181L35.8918 14.9767Z" fill="#FE5D38"/>
</svg>
