<svg width="57" height="56" viewBox="0 0 57 56" fill="none" xmlns="http://www.w3.org/2000/svg">
<rect x="0.176758" width="56" height="56" rx="28" fill="#FFEFEC"/>
<path d="M39.0266 13C38.9141 13 38.8065 13.0448 38.7278 13.1234C38.648 13.2032 38.6032 13.3109 38.6032 13.4234V14.1008V14.0996C38.6032 14.2121 38.648 14.3198 38.7278 14.3984C38.8065 14.4782 38.9141 14.523 39.0266 14.523C39.2601 14.523 39.45 14.3331 39.45 14.0996V13.4234C39.45 13.1899 39.2601 13 39.0266 13ZM17.221 14.4625C16.4722 14.4625 15.8553 15.0782 15.8553 15.827C15.8553 16.5758 16.4722 17.1928 17.221 17.1928C17.9698 17.1928 18.5867 16.5758 18.5867 15.827C18.5867 15.0782 17.9698 14.4625 17.221 14.4625ZM37.3463 14.6827C37.235 14.6827 37.1274 14.7262 37.0475 14.8061C36.9689 14.8859 36.9241 14.9924 36.9241 15.1049C36.9241 15.2174 36.9689 15.325 37.0475 15.4036C37.1274 15.4835 37.235 15.5282 37.3463 15.5282H38.0237C38.1362 15.5282 38.2439 15.4835 38.3225 15.4036C38.4024 15.325 38.4459 15.2174 38.4459 15.1049C38.4459 14.9924 38.4024 14.8859 38.3225 14.8061C38.2439 14.7262 38.1362 14.6827 38.0237 14.6827H37.3463ZM40.0294 14.6827C39.9169 14.6827 39.8104 14.7262 39.7306 14.8061C39.6508 14.8859 39.6072 14.9924 39.6072 15.1049C39.6072 15.2174 39.6508 15.325 39.7306 15.4036C39.8104 15.4835 39.9169 15.5282 40.0294 15.5282H40.708C40.8205 15.5282 40.9282 15.4835 41.0068 15.4036C41.0866 15.325 41.1314 15.2174 41.1314 15.1049C41.1314 14.9924 41.0866 14.8859 41.0068 14.8061C40.9282 14.7262 40.8205 14.6827 40.708 14.6827H40.0294ZM29.6335 14.9428C29.521 14.9428 29.4134 14.9875 29.3347 15.0661L27.9146 16.4863C27.7501 16.6508 27.7501 16.9193 27.9146 17.0839L29.3347 18.504C29.4134 18.5839 29.521 18.6286 29.6335 18.6286C29.746 18.6286 29.8537 18.5839 29.9323 18.504L31.3525 17.0839C31.5182 16.9194 31.5182 16.6508 31.3525 16.4863L29.9323 15.0661C29.8537 14.9875 29.746 14.9428 29.6335 14.9428ZM17.221 15.3081C17.5126 15.3081 17.7412 15.5355 17.7412 15.827C17.7412 16.1186 17.5138 16.3472 17.221 16.3472C16.9295 16.3472 16.7009 16.1198 16.7009 15.827C16.7009 15.5355 16.9283 15.3081 17.221 15.3081ZM39.0266 15.6843C38.9141 15.6843 38.8065 15.729 38.7279 15.8089C38.648 15.8875 38.6033 15.9952 38.6033 16.1077V16.7851V16.7839C38.6033 16.8964 38.648 17.004 38.7279 17.0839C38.8065 17.1625 38.9141 17.2073 39.0266 17.2073C39.2601 17.2073 39.45 17.0185 39.45 16.7839V16.1077C39.45 15.8742 39.2601 15.6843 39.0266 15.6843ZM29.6335 15.9625L30.4561 16.7851L29.6335 17.6064L28.8109 16.7851L29.6335 15.9625ZM22.8231 17.3524C22.5896 17.3524 22.4009 17.5411 22.4009 17.7746V18.452C22.4009 18.6855 22.5896 18.8754 22.8231 18.8754C22.9356 18.8754 23.0433 18.8307 23.1219 18.7508C23.2017 18.6722 23.2465 18.5645 23.2465 18.452V17.7746C23.2465 17.6633 23.2017 17.5557 23.1219 17.4758C23.0432 17.3972 22.9356 17.3524 22.8231 17.3524ZM34.8522 17.5024C34.6187 17.5097 34.4361 17.7044 34.4433 17.9379C34.5159 20.3694 33.6643 22.5248 32.2683 23.8447C31.9962 23.414 31.7276 23.0161 31.4688 22.6592C30.9643 21.9649 30.495 21.4217 30.0595 21.0564C29.8417 20.8737 29.6325 20.7334 29.4062 20.6475C29.18 20.5616 28.9115 20.5326 28.6683 20.6439C28.5389 20.7032 28.4349 20.7963 28.3538 20.9015L24.8142 24.8583C24.8118 24.8595 24.8094 24.8619 24.8058 24.8643L22.5074 27.4361V27.4349C22.5074 27.4361 22.5062 27.4373 22.5062 27.4385L17.5115 33.0225L17.5102 33.0238L13.3225 37.7052C13.21 37.831 13.1834 38.0112 13.2535 38.1636C13.3237 38.3173 13.4773 38.414 13.6455 38.4104L26.0591 38.1781H26.0603C26.0603 38.1781 26.0615 38.1781 26.0627 38.1769L33.5083 38.0378H33.5107L36.1877 37.987C36.322 37.9943 36.4587 37.9773 36.5893 37.9181C36.8325 37.8068 36.9873 37.5842 37.0683 37.3568C37.1506 37.1294 37.1808 36.8789 37.1845 36.5947C37.1929 36.0262 37.0865 35.3173 36.8893 34.4814C36.7877 34.052 36.6619 33.5887 36.5131 33.0999C38.4232 32.9028 40.6114 33.6637 42.4053 35.3052C42.4876 35.3814 42.5965 35.4213 42.709 35.4165C42.8215 35.4104 42.9267 35.362 43.0029 35.2786C43.0779 35.1963 43.1178 35.0862 43.113 34.975C43.1082 34.8625 43.0586 34.7572 42.9763 34.681C41.3142 33.1604 39.3051 32.3004 37.3959 32.2229C37.0076 32.2072 36.6229 32.2241 36.2467 32.275C35.9274 31.329 35.5342 30.3068 35.0734 29.2423C35.3153 29.2423 35.5754 29.1963 35.8475 29.0717L35.8463 29.0705C36.5951 28.727 36.8383 28.0689 36.9931 27.5995C37.1479 27.1302 37.2169 26.8495 37.6899 26.6318C38.1641 26.4141 38.4205 26.5471 38.8778 26.737C39.335 26.927 39.9919 27.1737 40.7419 26.8302C41.4918 26.4866 41.735 25.8286 41.8911 25.3592C42.0459 24.8899 42.1136 24.6092 42.589 24.3915H42.5878C42.8007 24.2947 42.8939 24.0443 42.7971 23.8314C42.7499 23.7298 42.6652 23.6499 42.56 23.6112C42.4548 23.5725 42.3386 23.5762 42.2358 23.6233C41.4858 23.9669 41.2427 24.6249 41.0866 25.0943C40.9318 25.5636 40.864 25.8443 40.3886 26.062C39.9145 26.2798 39.658 26.1467 39.2007 25.9568C38.7435 25.7669 38.0866 25.5201 37.3366 25.8637H37.3379C36.5891 26.2072 36.3459 26.8653 36.1911 27.3346C36.0362 27.804 35.9673 28.0846 35.4943 28.3012C35.1617 28.4536 34.9354 28.4318 34.6717 28.3411C34.0367 26.9548 33.3701 25.6834 32.7193 24.585C34.3984 23.0911 35.3697 20.6233 35.2875 17.9124C35.2851 17.7999 35.2367 17.6934 35.1556 17.6172C35.0734 17.5398 34.9647 17.4988 34.8522 17.5024ZM41.7716 18.827C41.0228 18.827 40.4059 19.444 40.4059 20.1928C40.4059 20.9416 41.0228 21.5585 41.7716 21.5585C42.5204 21.5585 43.1374 20.9416 43.1374 20.1928C43.1374 19.444 42.5204 18.827 41.7716 18.827ZM21.1443 19.0327V19.0339C20.9109 19.0339 20.7209 19.2238 20.7209 19.4573C20.7209 19.5698 20.7657 19.6774 20.8455 19.756C20.9242 19.8359 21.0318 19.8806 21.1443 19.8806H21.8205C21.933 19.8806 22.0407 19.8359 22.1193 19.756C22.1992 19.6774 22.2439 19.5698 22.2439 19.4573C22.2439 19.3448 22.1992 19.2371 22.1193 19.1585C22.0407 19.0786 21.933 19.0339 21.8205 19.0339L21.1443 19.0327ZM23.8262 19.0327V19.0339C23.7149 19.0339 23.6072 19.0786 23.5274 19.1585C23.4476 19.2371 23.404 19.3448 23.404 19.4573C23.404 19.5698 23.4476 19.6774 23.5274 19.756C23.6072 19.8359 23.7149 19.8806 23.8262 19.8806H24.506C24.6173 19.8806 24.725 19.8359 24.8048 19.756C24.8835 19.6774 24.9282 19.5698 24.9282 19.4573C24.9282 19.3448 24.8835 19.2371 24.8048 19.1585C24.725 19.0786 24.6173 19.0339 24.506 19.0339L23.8262 19.0327ZM41.7717 19.6726C42.0632 19.6726 42.2919 19.9 42.2919 20.1927C42.2919 20.4843 42.0644 20.7129 41.7717 20.7129C41.4802 20.7129 41.2515 20.4855 41.2515 20.1927C41.2515 19.9012 41.4789 19.6726 41.7717 19.6726ZM22.8232 20.0367C22.5897 20.0367 22.401 20.2266 22.401 20.4601V21.1375V21.1363C22.401 21.2488 22.4445 21.3565 22.5244 21.4363C22.603 21.5149 22.7106 21.5597 22.8231 21.5597C22.9356 21.5597 23.0433 21.5149 23.1219 21.4363C23.2018 21.3565 23.2465 21.2488 23.2465 21.1363V20.4601C23.2465 20.3476 23.2018 20.2399 23.1219 20.1613C23.0433 20.0815 22.9357 20.0367 22.8232 20.0367ZM29.0251 21.4145C29.0372 21.4157 29.0601 21.4193 29.1049 21.4363C29.1956 21.4714 29.3444 21.5597 29.5162 21.7036C29.8609 21.9915 30.3037 22.4935 30.7839 23.154C31.0464 23.5157 31.3223 23.9282 31.6041 24.3794C31.2751 24.6032 30.923 24.7859 30.5529 24.9214L30.5541 24.9226C30.4476 24.9613 30.363 25.0399 30.3158 25.1415C30.2686 25.2431 30.2638 25.3605 30.3025 25.4657C30.34 25.571 30.4198 25.6568 30.5214 25.704C30.623 25.7512 30.7392 25.756 30.8444 25.7173C31.269 25.5613 31.6694 25.3556 32.0432 25.1064C32.544 25.9592 33.0569 26.921 33.5577 27.9625C33.2239 27.9056 32.8464 27.9177 32.4412 28.104L32.4424 28.1028C32.3396 28.15 32.2609 28.2347 32.221 28.3399C32.1823 28.4451 32.1872 28.5625 32.2331 28.6641C32.3299 28.8758 32.5815 28.9702 32.7932 28.8722C33.2674 28.6544 33.5251 28.7875 33.9811 28.9774C33.9992 28.9847 34.0198 28.9931 34.0392 29.0016C34.5847 30.2149 35.0468 31.3835 35.4085 32.4468C34.9755 32.5677 34.5581 32.7371 34.1626 32.9572H34.1638C34.0658 33.0117 33.9932 33.1024 33.963 33.2101C33.9327 33.3189 33.946 33.4339 34.0005 33.5319C34.0549 33.6298 34.1468 33.7024 34.2545 33.7327C34.3622 33.7641 34.4783 33.7496 34.5763 33.6952C34.9198 33.5028 35.2876 33.3564 35.6723 33.2524C35.8295 33.7605 35.9638 34.2395 36.0654 34.675C36.2529 35.471 36.3436 36.1339 36.3376 36.5827C36.334 36.8077 36.3049 36.977 36.271 37.0678C36.2553 37.1113 36.2432 37.1319 36.2372 37.1416V37.1428C36.2348 37.1428 36.2323 37.1416 36.2311 37.1416C36.1658 37.1343 35.8622 36.9855 35.5078 36.6407C35.4969 36.6311 35.486 36.619 35.4751 36.6081C35.4001 36.5331 35.3215 36.4508 35.2404 36.3613C35.2271 36.3456 35.2126 36.3311 35.1993 36.3153C34.9319 36.0153 34.6368 35.6379 34.3283 35.2C34.1795 34.9895 34.0283 34.767 33.8747 34.5298C33.8445 34.4827 33.813 34.4318 33.7816 34.3835C33.6485 34.1754 33.513 33.9564 33.3763 33.7302C33.3352 33.6613 33.2941 33.5947 33.2517 33.5246C33.0957 33.2597 32.9372 32.9839 32.7788 32.6984C32.6759 32.5133 32.5731 32.3246 32.4703 32.131C32.4437 32.079 32.4171 32.027 32.3904 31.9762C32.0409 31.3121 31.6913 30.6056 31.3513 29.8653C31.1396 29.4044 30.9425 28.9496 30.7549 28.5032C30.7271 28.4355 30.6969 28.3677 30.6691 28.3C30.6062 28.1452 30.5457 27.9927 30.4852 27.8403C30.4392 27.7254 30.392 27.6093 30.3485 27.4956C30.3001 27.3722 30.2554 27.2512 30.2094 27.129C30.1622 27.0032 30.1138 26.8762 30.0691 26.7516C30.0243 26.6294 29.9832 26.5109 29.9408 26.3923C29.8961 26.2641 29.8513 26.1371 29.8102 26.0124C29.7727 25.9024 29.7376 25.7935 29.7025 25.6846C29.6638 25.5685 29.6275 25.4524 29.5912 25.3386C29.5574 25.2274 29.5235 25.1173 29.492 25.0096C29.4582 24.8959 29.4255 24.7834 29.3953 24.6733C29.3674 24.5729 29.3396 24.4737 29.3142 24.377C29.2876 24.2741 29.2622 24.1737 29.238 24.0758C29.2126 23.9754 29.1884 23.8749 29.1666 23.7782C29.1473 23.6935 29.1303 23.6124 29.1134 23.5302C29.0916 23.4262 29.0699 23.3209 29.0517 23.2229C29.0396 23.1552 29.0299 23.0911 29.0191 23.0258C29.0033 22.9314 28.9876 22.8358 28.9755 22.7487C28.967 22.6846 28.9622 22.6278 28.9549 22.5685C28.9453 22.4826 28.9356 22.3955 28.9295 22.3181C28.9283 22.3024 28.9295 22.2903 28.9283 22.2758C28.9017 21.7955 28.9852 21.475 29.0215 21.4229V21.4217C29.0227 21.4205 29.0239 21.4181 29.0251 21.4157L29.0251 21.4145ZM28.0912 22.4621C28.1239 22.8685 28.2025 23.3331 28.315 23.846C28.321 23.875 28.3271 23.9028 28.3331 23.9319C28.344 23.9827 28.3525 24.0286 28.3658 24.0806C28.3839 24.1557 28.4057 24.2367 28.4251 24.3141C28.4372 24.3625 28.4468 24.4073 28.4589 24.4557C28.4674 24.4895 28.4783 24.527 28.488 24.5609C28.5218 24.6903 28.5581 24.8222 28.5956 24.9552C28.6186 25.0375 28.6428 25.1198 28.667 25.2032C28.7081 25.3423 28.7505 25.4839 28.7952 25.6278C28.8218 25.7137 28.8497 25.8008 28.8775 25.8879C28.9235 26.0318 28.9718 26.1758 29.0214 26.3246C29.0553 26.425 29.0916 26.5278 29.1267 26.6294C29.1763 26.771 29.2259 26.9113 29.2779 27.0552C29.3178 27.1641 29.3589 27.2766 29.4013 27.3867C29.4533 27.5258 29.5053 27.6649 29.5597 27.8065C29.6105 27.9371 29.665 28.0714 29.7182 28.2045C29.7702 28.3351 29.821 28.4633 29.8755 28.5952C29.9239 28.7125 29.9759 28.8335 30.0255 28.952C30.092 29.1081 30.1561 29.2641 30.2251 29.4226C30.2287 29.4298 30.2323 29.4383 30.236 29.4456C30.3472 29.7008 30.461 29.9584 30.5807 30.2173C30.7343 30.5536 30.8904 30.8802 31.0476 31.202C29.3178 29.7008 27.4185 27.7206 25.6599 25.1803L28.0912 22.4621ZM17.2209 24.5718C17.1084 24.5718 17.0007 24.6165 16.9221 24.6964L15.502 26.1165V26.1153C15.4221 26.1951 15.3774 26.3028 15.3774 26.4153C15.3774 26.5278 15.4221 26.6355 15.502 26.7141L16.9221 28.1342C17.0007 28.2129 17.1084 28.2576 17.2209 28.2576C17.3334 28.2576 17.4411 28.2129 17.5197 28.1342L18.9398 26.7141C19.1056 26.5496 19.1056 26.281 18.9398 26.1165L17.5197 24.6964C17.4399 24.6165 17.3322 24.5718 17.2209 24.5718ZM17.2209 25.5915L18.0435 26.4141L17.2221 27.2355L16.3995 26.4129L17.2209 25.5915ZM25.0948 25.8129C27.404 29.1045 29.9347 31.4874 32.0322 33.0928C32.0358 33.1001 32.0394 33.1061 32.043 33.1134C32.0612 33.146 32.0793 33.1811 32.0987 33.2138C32.2088 33.4097 32.3176 33.6009 32.4265 33.7872C32.4434 33.8174 32.4616 33.8476 32.4785 33.8767C32.5947 34.0739 32.7096 34.265 32.8233 34.4501C32.8293 34.461 32.8366 34.4719 32.8426 34.4827C32.9612 34.6739 33.0785 34.8577 33.1947 35.0356C33.2007 35.0453 33.2068 35.0537 33.2128 35.0634C33.3289 35.24 33.4426 35.4106 33.5564 35.5739C33.5588 35.5775 33.5612 35.5823 33.5648 35.586C33.5685 35.5908 33.5709 35.5944 33.5745 35.5993C33.6459 35.7009 33.7172 35.8073 33.7874 35.9029C33.8406 35.9767 33.8926 36.042 33.9459 36.1122C33.9568 36.1279 33.9689 36.1424 33.9797 36.1569C34.2761 36.5489 34.5616 36.89 34.8326 37.1646L33.6217 37.1876C31.241 35.7989 27.0726 32.8558 23.372 27.7399L25.0948 25.8129ZM22.7927 28.3871C26.0128 32.7963 29.5694 35.61 32.0527 37.2191L26.2125 37.3292C24.3992 35.6816 22.4382 33.5211 20.6733 30.7557L22.7927 28.3871ZM41.7726 28.646C41.0238 28.646 40.4068 29.2629 40.4068 30.0117C40.4068 30.7605 41.0238 31.3774 41.7726 31.3774C42.5214 31.3774 43.1383 30.7605 43.1383 30.0117C43.1383 29.2629 42.5214 28.646 41.7726 28.646ZM41.7726 29.4915C42.0641 29.4915 42.2927 29.719 42.2927 30.0117C42.2927 30.3032 42.0653 30.5319 41.7726 30.5319C41.481 30.5319 41.2524 30.3044 41.2524 30.0117C41.2524 29.7202 41.4798 29.4915 41.7726 29.4915ZM20.1013 31.3968C21.6751 33.8246 23.3833 35.7843 25.0187 37.3497L21.559 37.4138C20.4775 36.2259 19.3997 34.8674 18.3678 33.3335L20.1013 31.3968ZM17.78 33.9903C18.6425 35.2568 19.5376 36.4024 20.4376 37.4355L14.5996 37.5456L17.78 33.9903ZM40.2133 38.6379C40.1008 38.6379 39.9931 38.6827 39.9145 38.7613C39.8347 38.8412 39.7899 38.9488 39.7899 39.0601V39.7375C39.7899 39.85 39.8347 39.9577 39.9145 40.0363C39.9931 40.1161 40.1008 40.1609 40.2133 40.1609C40.3258 40.1609 40.4335 40.1161 40.5121 40.0363C40.5919 39.9577 40.6367 39.85 40.6367 39.7375V39.0601C40.6367 38.9488 40.5919 38.8412 40.5121 38.7613C40.4335 38.6827 40.3258 38.6379 40.2133 38.6379ZM30.9255 39.3141C30.813 39.3141 30.7065 39.3589 30.6267 39.4387L29.2065 40.8589C29.0408 41.0234 29.0408 41.2907 29.2065 41.4565L30.6267 42.8766C30.7912 43.0411 31.0585 43.0411 31.2243 42.8766L32.6444 41.4565C32.8089 41.2907 32.8089 41.0234 32.6444 40.8577L31.2243 39.4375V39.4387C31.1456 39.3589 31.038 39.3141 30.9255 39.3141ZM38.5308 40.317C38.4195 40.317 38.3119 40.3617 38.232 40.4404C38.1534 40.5202 38.1086 40.6279 38.1086 40.7404C38.1086 40.8516 38.1534 40.9593 38.232 41.0391C38.3119 41.1178 38.4195 41.1625 38.5308 41.1625H39.2082C39.3207 41.1625 39.4272 41.1178 39.507 41.0391C39.5869 40.9593 39.6304 40.8516 39.6304 40.7404C39.6304 40.6279 39.5869 40.5202 39.507 40.4404C39.4272 40.3617 39.3207 40.317 39.2082 40.317H38.5308ZM41.2163 40.317C41.1038 40.317 40.9962 40.3617 40.9175 40.4404C40.8377 40.5202 40.7929 40.6279 40.7929 40.7404C40.7929 40.8516 40.8377 40.9593 40.9175 41.0391C40.9962 41.1178 41.1038 41.1625 41.2163 41.1625H41.8925C42.005 41.1625 42.1127 41.1178 42.1913 41.0391C42.2712 40.9593 42.3159 40.8516 42.3159 40.7404C42.3159 40.6279 42.2712 40.5202 42.1913 40.4404C42.1127 40.3617 42.005 40.317 41.8925 40.317H41.2163ZM30.9257 40.3351L31.7471 41.1565L30.9245 41.9778L30.1032 41.1565L30.9257 40.3351ZM40.2136 41.3222C39.9801 41.3222 39.7902 41.5121 39.7902 41.7456V42.423V42.4218C39.7902 42.5343 39.8349 42.642 39.9148 42.7218C39.9934 42.8004 40.1011 42.8452 40.2136 42.8452C40.3261 42.8452 40.4337 42.8004 40.5124 42.7218C40.5922 42.642 40.637 42.5343 40.637 42.4218V41.7444V41.7456C40.637 41.5121 40.4471 41.3222 40.2136 41.3222Z" fill="#FE5D38"/>
</svg>
