<svg width="57" height="56" viewBox="0 0 57 56" fill="none" xmlns="http://www.w3.org/2000/svg">
<rect x="0.510742" width="56" height="56" rx="28" fill="#FFEFEC"/>
<path d="M37.8053 35.5665C36.617 34.7986 35.362 34.1394 34.0553 33.597C34.0974 33.2814 34.0565 32.9603 33.9366 32.6653C33.8168 32.3704 33.6221 32.1118 33.3718 31.915C33.1533 31.7389 32.8979 31.6143 32.6246 31.5506C32.3513 31.4868 32.0671 31.4856 31.7933 31.547C31.7188 31.3875 31.6518 31.2385 31.5983 31.114C32.4069 30.7388 33.1014 30.1556 33.6109 29.4242C34.1204 28.6927 34.4266 27.8391 34.4983 26.9505C35.0651 26.8373 35.5753 26.5314 35.9422 26.0847C36.309 25.638 36.51 25.078 36.5108 24.5V19.0185C36.5108 15.7 32.9218 13 28.5108 13C24.0998 13 20.5108 15.7 20.5108 19.0185V24.5C20.5117 25.0779 20.7126 25.6376 21.0793 26.0842C21.4461 26.5308 21.9561 26.8367 22.5228 26.95C22.5944 27.8386 22.9006 28.6922 23.4101 29.4237C23.9196 30.1551 24.6142 30.7383 25.4228 31.1135C25.3693 31.238 25.3023 31.387 25.2278 31.547C24.954 31.4854 24.6698 31.4865 24.3965 31.5501C24.1231 31.6137 23.8677 31.7383 23.6493 31.9145C23.399 32.1113 23.2043 32.3699 23.0844 32.6648C22.9646 32.9598 22.9237 33.2809 22.9658 33.5965C21.6591 34.1389 20.404 34.7981 19.2158 35.566C18.0729 36.3252 17.1362 37.3561 16.4896 38.5662C15.843 39.7763 15.5067 41.128 15.5108 42.5C15.5108 42.6326 15.5635 42.7598 15.6572 42.8536C15.751 42.9473 15.8782 43 16.0108 43H41.0108C41.1434 43 41.2706 42.9473 41.3643 42.8536C41.4581 42.7598 41.5108 42.6326 41.5108 42.5C41.5147 41.128 41.1783 39.7764 40.5316 38.5664C39.8849 37.3563 38.9482 36.3256 37.8053 35.5665ZM31.7898 32.6C31.9384 32.5236 32.1057 32.4911 32.2721 32.5065C32.4385 32.5218 32.597 32.5843 32.7291 32.6866C32.8612 32.789 32.9614 32.9269 33.0178 33.0841C33.0743 33.2414 33.0847 33.4115 33.0478 33.5745C32.9388 34.0055 32.8228 34.3245 32.8218 34.327C32.7808 34.4384 32.7808 34.5606 32.8218 34.672C32.8218 34.6755 32.9388 34.9935 33.0478 35.4245C33.0849 35.5875 33.0747 35.7578 33.0183 35.9152C32.962 36.0727 32.8619 36.2108 32.7297 36.3132C32.5976 36.4157 32.4389 36.4783 32.2724 36.4937C32.1059 36.509 31.9384 36.4765 31.7898 36.4C31.1097 36.0418 30.4623 35.6248 29.8548 35.154C29.9559 34.951 30.0085 34.7273 30.0085 34.5005C30.0085 34.2737 29.9559 34.05 29.8548 33.847C30.4623 33.3758 31.1097 32.9586 31.7898 32.6ZM27.8898 33.139C27.3339 32.7061 26.7492 32.3115 26.1398 31.958C26.2188 31.7885 26.2898 31.632 26.3448 31.5C27.7519 31.966 29.2717 31.966 30.6788 31.5C30.7348 31.632 30.8048 31.7885 30.8838 31.958C30.2743 32.3115 29.6897 32.7061 29.1338 33.139C28.9386 33.0484 28.7261 33.0016 28.511 33.0016C28.2958 33.0017 28.0833 33.0488 27.8883 33.1395L27.8898 33.139ZM29.0108 34.5C29.0108 34.5989 28.9815 34.6956 28.9265 34.7778C28.8716 34.86 28.7935 34.9241 28.7021 34.9619C28.6108 34.9998 28.5102 35.0097 28.4132 34.9904C28.3162 34.9711 28.2271 34.9235 28.1572 34.8536C28.0873 34.7836 28.0397 34.6945 28.0204 34.5975C28.0011 34.5006 28.011 34.4 28.0488 34.3087C28.0867 34.2173 28.1508 34.1392 28.233 34.0843C28.3152 34.0293 28.4119 34 28.5108 34C28.6434 34 28.7706 34.0527 28.8643 34.1464C28.9581 34.2402 29.0108 34.3674 29.0108 34.5ZM29.1338 35.8605C29.822 36.403 30.5584 36.8815 31.3338 37.29C31.5204 37.3816 31.721 37.4418 31.9273 37.468C31.2108 39.028 29.9243 40 28.5108 40C27.0973 40 25.8108 39.028 25.0933 37.468C25.2994 37.4417 25.4998 37.3816 25.6863 37.29C26.4615 36.8813 27.1979 36.4028 27.8863 35.8605C28.0816 35.9514 28.2945 35.9986 28.51 35.9986C28.7255 35.9986 28.9384 35.9514 29.1338 35.8605ZM34.5108 25.908V24L35.4873 24.7325C35.4452 24.9981 35.3323 25.2475 35.1604 25.4543C34.9886 25.6612 34.7642 25.8179 34.5108 25.908ZM22.5108 25.908C22.2574 25.8179 22.033 25.6612 21.8611 25.4543C21.6893 25.2475 21.5764 24.9981 21.5343 24.7325L22.5108 24V25.908ZM22.7108 22.6L21.5108 23.5V19.0185C21.5108 16.25 24.6508 14 28.5108 14C32.3708 14 35.5108 16.25 35.5108 19.0185V23.5L34.3108 22.6C34.2242 22.5351 34.119 22.5 34.0108 22.5H28.8573C28.8573 22.5 28.2408 20.873 28.0428 20.328C27.9654 20.131 27.8278 19.9634 27.6495 19.8492C27.4713 19.735 27.2616 19.68 27.0502 19.692C26.8389 19.7041 26.6368 19.7825 26.4727 19.9162C26.3085 20.0499 26.1908 20.232 26.1363 20.4365C26.0108 20.954 25.6203 22.5 25.6203 22.5H23.0108C22.9026 22.5 22.7973 22.5351 22.7108 22.6ZM23.5108 26.75V23.5H25.6203C25.8434 23.5001 26.0601 23.4256 26.2359 23.2883C26.4118 23.151 26.5367 22.9589 26.5908 22.7425L27.1063 20.679L27.9208 22.85C27.9926 23.0405 28.1206 23.2046 28.2879 23.3207C28.4551 23.4368 28.6537 23.4993 28.8573 23.5H33.5108V26.75C33.5108 29.0105 31.2678 30.85 28.5108 30.85C25.7538 30.85 23.5108 29.0105 23.5108 26.75ZM24.1998 34.3275C24.1998 34.324 24.0828 34.006 23.9738 33.575C23.9368 33.412 23.9471 33.2418 24.0035 33.0844C24.0599 32.9271 24.16 32.7891 24.2921 32.6867C24.4243 32.5843 24.5829 32.5218 24.7493 32.5064C24.9158 32.491 25.0831 32.5235 25.2318 32.6C25.9119 32.9581 26.5594 33.375 27.1668 33.846C27.0656 34.049 27.013 34.2727 27.013 34.4995C27.013 34.7263 27.0656 34.95 27.1668 35.153C26.5594 35.624 25.9119 36.0409 25.2318 36.399C25.0832 36.4754 24.9159 36.5079 24.7495 36.4925C24.5831 36.4772 24.4245 36.4147 24.2924 36.3124C24.1604 36.21 24.0602 36.0721 24.0037 35.9149C23.9473 35.7576 23.9369 35.5875 23.9738 35.4245C24.0828 34.9935 24.1988 34.6745 24.1998 34.672C24.2406 34.5608 24.2406 34.4387 24.1998 34.3275ZM20.0108 42H16.5278C16.6041 40.8316 16.9605 39.6986 17.5667 38.6968C18.1729 37.695 19.0111 36.8538 20.0108 36.244V42ZM36.0108 42H21.0108V35.65C21.6443 35.3 22.3508 34.957 23.1708 34.5965C23.1208 34.7465 23.0633 34.9465 23.0043 35.18C22.9017 35.5838 22.9384 36.0103 23.1085 36.3906C23.2785 36.771 23.572 37.0827 23.9413 37.2755C24.7408 39.5445 26.5108 41 28.5108 41C30.5108 41 32.2808 39.5445 33.0803 37.276C33.4496 37.0832 33.743 36.7715 33.9131 36.3911C34.0831 36.0108 34.1198 35.5843 34.0173 35.1805C33.9583 34.9465 33.8988 34.7465 33.8508 34.597C34.6708 34.9575 35.3773 35.3015 36.0108 35.6505V42ZM37.0108 42V36.244C38.0104 36.8538 38.8487 37.695 39.4549 38.6968C40.0611 39.6986 40.4174 40.8316 40.4938 42H37.0108Z" fill="#FE5D38"/>
<path d="M28.5108 37.5C28.7869 37.5 29.0108 37.2761 29.0108 37C29.0108 36.7239 28.7869 36.5 28.5108 36.5C28.2346 36.5 28.0108 36.7239 28.0108 37C28.0108 37.2761 28.2346 37.5 28.5108 37.5Z" fill="#FE5D38"/>
<path d="M28.5108 39.5C28.7869 39.5 29.0108 39.2761 29.0108 39C29.0108 38.7239 28.7869 38.5 28.5108 38.5C28.2346 38.5 28.0108 38.7239 28.0108 39C28.0108 39.2761 28.2346 39.5 28.5108 39.5Z" fill="#FE5D38"/>
<path d="M33.0108 40C32.8782 40 32.751 40.0527 32.6572 40.1464C32.5635 40.2402 32.5108 40.3674 32.5108 40.5C32.5108 40.6326 32.5635 40.7598 32.6572 40.8536C32.751 40.9473 32.8782 41 33.0108 41H34.0108C34.1434 41 34.2706 40.9473 34.3643 40.8536C34.4581 40.7598 34.5108 40.6326 34.5108 40.5C34.5108 40.3674 34.4581 40.2402 34.3643 40.1464C34.2706 40.0527 34.1434 40 34.0108 40H33.0108Z" fill="#FE5D38"/>
<path d="M32.4193 25.9175C32.4997 25.8135 32.5359 25.6821 32.5202 25.5516C32.5044 25.4212 32.4379 25.3021 32.335 25.2203C32.2322 25.1385 32.1013 25.1005 31.9706 25.1144C31.8399 25.1284 31.72 25.1933 31.6368 25.295C31.5616 25.3899 31.4653 25.4658 31.3555 25.5167C31.2456 25.5677 31.1254 25.5922 31.0045 25.5883C30.8835 25.5844 30.7651 25.5522 30.6588 25.4943C30.5525 25.4365 30.4612 25.3545 30.3923 25.255C30.3462 25.208 30.2912 25.1706 30.2305 25.1451C30.1698 25.1196 30.1046 25.1065 30.0388 25.1065C29.9729 25.1065 29.9078 25.1196 29.8471 25.1451C29.7864 25.1706 29.7314 25.208 29.6853 25.255C29.5915 25.3488 29.5389 25.4759 29.5389 25.6085C29.5389 25.7411 29.5915 25.8682 29.6853 25.962C29.8548 26.1609 30.0662 26.3198 30.3043 26.4274C30.5425 26.535 30.8015 26.5886 31.0628 26.5844C31.3241 26.5801 31.5812 26.5181 31.8157 26.4028C32.0502 26.2875 32.2563 26.1218 32.4193 25.9175Z" fill="#FE5D38"/>
<path d="M27.3758 25.9175C27.4562 25.8135 27.4924 25.6821 27.4767 25.5516C27.4609 25.4212 27.3944 25.3021 27.2915 25.2203C27.1887 25.1385 27.0578 25.1005 26.9271 25.1144C26.7964 25.1284 26.6765 25.1933 26.5933 25.295C26.5181 25.3899 26.4218 25.4658 26.312 25.5167C26.2021 25.5677 26.0819 25.5922 25.961 25.5883C25.84 25.5844 25.7216 25.5522 25.6153 25.4943C25.509 25.4365 25.4177 25.3545 25.3488 25.255C25.3027 25.208 25.2477 25.1706 25.187 25.1451C25.1263 25.1196 25.0611 25.1065 24.9953 25.1065C24.9294 25.1065 24.8643 25.1196 24.8036 25.1451C24.7429 25.1706 24.6879 25.208 24.6418 25.255C24.548 25.3488 24.4954 25.4759 24.4954 25.6085C24.4954 25.7411 24.548 25.8682 24.6418 25.962C24.8113 26.1609 25.0227 26.3198 25.2608 26.4274C25.499 26.535 25.758 26.5886 26.0193 26.5844C26.2806 26.5801 26.5377 26.5181 26.7722 26.4028C27.0067 26.2875 27.2128 26.1218 27.3758 25.9175Z" fill="#FE5D38"/>
<path d="M29.8608 27.9215C29.8147 27.8742 29.7595 27.8368 29.6986 27.8114C29.6377 27.7859 29.5722 27.7731 29.5062 27.7735C29.4402 27.774 29.375 27.7878 29.3144 27.8141C29.2538 27.8404 29.1992 27.8786 29.1538 27.9265C29.0707 28.0137 28.9708 28.0831 28.8601 28.1305C28.7494 28.178 28.6302 28.2024 28.5098 28.2024C28.3893 28.2024 28.2702 28.178 28.1595 28.1305C28.0488 28.0831 27.9489 28.0137 27.8658 27.9265C27.8203 27.8786 27.7657 27.8404 27.7052 27.8141C27.6446 27.7878 27.5794 27.774 27.5133 27.7735C27.4473 27.7731 27.3819 27.7859 27.321 27.8114C27.26 27.8368 27.2049 27.8742 27.1588 27.9215C27.0655 28.0152 27.0127 28.1418 27.0117 28.274C27.0108 28.4062 27.0618 28.5335 27.1538 28.6285C27.3306 28.8087 27.5417 28.9518 27.7745 29.0496C28.0073 29.1473 28.2573 29.1976 28.5098 29.1976C28.7623 29.1976 29.0122 29.1473 29.2451 29.0496C29.4779 28.9518 29.6889 28.8087 29.8658 28.6285C29.9578 28.5335 30.0088 28.4062 30.0078 28.274C30.0069 28.1418 29.9541 28.0152 29.8608 27.9215Z" fill="#FE5D38"/>
</svg>
