<svg width="57" height="56" viewBox="0 0 57 56" fill="none" xmlns="http://www.w3.org/2000/svg">
<rect x="0.176758" width="56" height="56" rx="28" fill="#FFEFEC"/>
<path d="M42.1792 31.0697C42.1792 30.4774 41.9534 29.9136 41.5432 29.4817C41.3625 29.2916 41.3625 28.9939 41.5432 28.8038C41.9534 28.3719 42.1792 27.8081 42.1792 27.2161C42.1792 25.9436 41.1438 24.9082 39.8713 24.9082H35.9266C35.6194 24.9082 35.3686 24.785 35.1807 24.5421C34.9928 24.2992 34.9364 24.0257 35.0134 23.7282L35.9964 19.9331C36.1814 19.2425 36.0856 18.5197 35.7268 17.8981C35.3679 17.2765 34.7897 16.8319 34.099 16.6469L33.8656 16.5844C32.4554 16.2067 30.9845 17.0452 30.5869 18.4536L29.202 23.3596C28.9122 24.3871 28.421 24.9082 27.7427 24.9082H21.4756C21.2653 24.9082 21.0947 25.0788 21.0947 25.2891V29.4062C17.2447 29.605 14.1738 32.7998 14.1738 36.6982C14.1738 40.7246 17.4496 44 21.4756 44C23.8569 44 25.9751 42.854 27.309 41.0849H39.871C41.1435 41.0849 42.1789 40.0495 42.1789 38.777C42.1789 38.1847 41.953 37.6209 41.5428 37.189C41.3621 36.9989 41.3621 36.7011 41.5428 36.511C41.953 36.0791 42.1789 35.5154 42.1789 34.9234C42.1789 34.3314 41.953 33.7673 41.5428 33.3357C41.3621 33.1456 41.3621 32.8478 41.5428 32.6574C41.953 32.2259 42.1792 31.6617 42.1792 31.0697ZM21.8569 25.67H25.7181V30.7582C24.6184 29.9704 23.2916 29.4803 21.8569 29.4059V25.6697V25.67ZM21.476 43.2382C17.8699 43.2382 14.936 40.3043 14.936 36.6982C14.936 33.0922 17.8699 30.1583 21.476 30.1583C25.082 30.1583 28.0159 33.0922 28.0159 36.6982C28.0159 40.3043 25.082 43.2382 21.476 43.2382ZM40.9906 32.1326C40.8558 32.2747 40.7615 32.4405 40.7055 32.6158H38.468C38.2577 32.6158 38.0871 32.7864 38.0871 32.9967C38.0871 33.2071 38.2577 33.3777 38.468 33.3777H40.7055C40.7611 33.5529 40.8554 33.7188 40.9906 33.8609C41.2656 34.1503 41.4171 34.5276 41.4171 34.9237C41.4171 35.3198 41.2656 35.6971 40.9906 35.9866C40.8558 36.1287 40.7615 36.2945 40.7055 36.4698H38.468C38.2577 36.4698 38.0871 36.6404 38.0871 36.8507C38.0871 37.0611 38.2577 37.2317 38.468 37.2317H40.7055C40.7615 37.4069 40.8554 37.5728 40.9906 37.7145C41.2656 38.004 41.4171 38.3813 41.4171 38.7774C41.4171 39.6299 40.7235 40.3231 39.871 40.3231H27.8124C28.4261 39.2544 28.7774 38.0166 28.7774 36.6982C28.7774 34.6068 27.8934 32.7181 26.4796 31.386V25.6704H27.7427C28.7738 25.6704 29.5526 24.9234 29.9353 23.567L31.3202 18.661C31.6053 17.6512 32.6585 17.0502 33.6682 17.3209L33.9017 17.3834C34.3957 17.5157 34.8095 17.8341 35.0669 18.2794C35.3242 18.725 35.3928 19.2421 35.2595 19.7394L34.2757 23.5378C34.1406 24.06 34.2479 24.5826 34.5779 25.009C34.9078 25.4355 35.3867 25.6704 35.9263 25.6704H39.871C40.7235 25.6704 41.4171 26.3639 41.4171 27.2165C41.4171 27.6126 41.2656 27.9899 40.9906 28.2794C40.8558 28.4214 40.7615 28.5873 40.7055 28.7622H38.468C38.2577 28.7622 38.0871 28.9328 38.0871 29.1431C38.0871 29.3534 38.2577 29.524 38.468 29.524H40.7055C40.7615 29.6993 40.8554 29.8652 40.9906 30.0069C41.2656 30.2963 41.4171 30.674 41.4171 31.0697C41.4171 31.4655 41.2656 31.8432 40.9906 32.1326ZM32.9776 14.2273V12.3809C32.9776 12.1706 33.1482 12 33.3585 12C33.5688 12 33.7394 12.1706 33.7394 12.3809V14.2273C33.7394 14.4377 33.5688 14.6082 33.3585 14.6082C33.1482 14.6082 32.9776 14.4377 32.9776 14.2273ZM29.8059 13.4348C29.7008 13.2526 29.7633 13.0195 29.9454 12.9143C30.1279 12.8092 30.3607 12.8717 30.4658 13.0538L31.3892 14.6531C31.4944 14.8352 31.4319 15.0683 31.2497 15.1735C31.1897 15.2082 31.1243 15.2244 31.0596 15.2244C30.9281 15.2244 30.7998 15.1561 30.7293 15.034L29.8059 13.4348ZM27.4467 15.4131C27.5519 15.2309 27.7846 15.1684 27.9671 15.2736L29.5663 16.197C29.7485 16.3021 29.811 16.5352 29.7058 16.7174C29.6353 16.8395 29.507 16.9078 29.3755 16.9078C29.3108 16.9078 29.2454 16.8912 29.1854 16.8569L27.5862 15.9335C27.404 15.8283 27.3415 15.5952 27.4467 15.4131ZM26.532 18.8262C26.532 18.6158 26.7026 18.4452 26.9129 18.4452H28.7593C28.9696 18.4452 29.1402 18.6158 29.1402 18.8262C29.1402 19.0365 28.9696 19.2071 28.7593 19.2071H26.9129C26.7026 19.2071 26.532 19.0365 26.532 18.8262ZM35.3278 14.6531L36.2512 13.0538C36.3563 12.8717 36.5894 12.8095 36.7716 12.9143C36.9537 13.0195 37.0163 13.2526 36.9111 13.4348L35.9877 15.034C35.9172 15.1561 35.7889 15.2244 35.6574 15.2244C35.5927 15.2244 35.5273 15.2082 35.4673 15.1735C35.2851 15.0683 35.2226 14.8352 35.3278 14.6531ZM37.1507 16.197L38.7499 15.2736C38.932 15.1684 39.1652 15.2309 39.2703 15.4131C39.3755 15.5952 39.313 15.8283 39.1308 15.9335L37.5316 16.8569C37.4716 16.8916 37.4062 16.9078 37.3415 16.9078C37.21 16.9078 37.0817 16.8395 37.0112 16.7174C36.906 16.5352 36.9686 16.3021 37.1507 16.197ZM37.9573 18.4452H39.8038C40.0141 18.4452 40.1847 18.6158 40.1847 18.8262C40.1847 19.0365 40.0141 19.2071 39.8038 19.2071H37.9573C37.747 19.2071 37.5764 19.0365 37.5764 18.8262C37.5764 18.6158 37.747 18.4452 37.9573 18.4452ZM25.3245 39.7777C24.3831 40.953 22.9805 41.627 21.476 41.627C19.9714 41.627 18.5692 40.953 17.6274 39.7777C17.4958 39.6137 17.5222 39.3737 17.6867 39.2421C17.8511 39.1106 18.0907 39.137 18.2223 39.3014C19.0184 40.2953 20.2045 40.8652 21.476 40.8652C22.7474 40.8652 23.9339 40.2953 24.7297 39.3014C24.8612 39.1373 25.1008 39.1106 25.2653 39.2421C25.4293 39.3737 25.4561 39.6133 25.3245 39.7777ZM26.2544 36.399C26.1944 36.4333 26.1294 36.4499 26.065 36.4499C25.9331 36.4499 25.8048 36.3813 25.7344 36.2588C25.4163 35.7055 24.9584 35.3881 24.4785 35.3881C23.9985 35.3881 23.541 35.7055 23.223 36.2588C23.1182 36.4413 22.8854 36.5038 22.7029 36.399C22.5204 36.2942 22.4575 36.0611 22.5627 35.8789C23.0206 35.0828 23.7188 34.6259 24.4789 34.6259C25.2389 34.6259 25.9371 35.0828 26.395 35.8789C26.4998 36.0614 26.4366 36.2942 26.2544 36.399ZM17.1055 36.399C16.923 36.2942 16.8601 36.0614 16.9653 35.8789C17.4228 35.0828 18.1214 34.6259 18.8815 34.6259C19.6415 34.6259 20.3397 35.0828 20.7976 35.8789C20.9024 36.0614 20.8395 36.2942 20.6574 36.399C20.5974 36.4333 20.5323 36.4499 20.468 36.4499C20.3361 36.4499 20.2078 36.3813 20.1373 36.2588C19.8193 35.7055 19.3614 35.3881 18.8818 35.3881C18.4022 35.3881 17.9443 35.7055 17.6263 36.2588C17.5215 36.4413 17.2884 36.5042 17.1062 36.399H17.1055Z" fill="#FE5D38"/>
</svg>
