<svg width="57" height="56" viewBox="0 0 57 56" fill="none" xmlns="http://www.w3.org/2000/svg">
<rect x="0.176758" width="56" height="56" rx="28" fill="#FFEFEC"/>
<path d="M39.7601 35.9436V30.7044C39.7601 30.6997 39.7601 30.695 39.7601 30.6906C39.6864 28.6733 38.7207 26.9024 36.9672 25.5688C35.6354 24.5562 33.8909 23.8157 31.8804 23.4019C33.4554 22.2548 34.4811 20.3968 34.4811 18.3039C34.4811 14.828 31.6531 12 28.1771 12C24.7012 12 21.8732 14.828 21.8732 18.3039C21.8732 20.3972 22.8989 22.2548 24.4739 23.4019C22.4634 23.8157 20.7189 24.5558 19.3871 25.5688C17.6336 26.9024 16.6679 28.6733 16.5942 30.6906C16.5942 30.6953 16.5942 30.7 16.5942 30.7044V35.9436C16.5942 36.154 16.7648 36.3245 16.9751 36.3245H20.1298C20.3293 40.5905 23.8624 44 28.1771 44C32.4919 44 36.0246 40.5905 36.2245 36.3245H39.3792C39.5895 36.3245 39.7601 36.154 39.7601 35.9436ZM22.6354 18.3039C22.6354 15.2483 25.1215 12.7618 28.1775 12.7618C31.2335 12.7618 33.7196 15.2479 33.7196 18.3039C33.7196 21.36 31.2335 23.846 28.1775 23.846C25.1215 23.846 22.6354 21.36 22.6354 18.3039ZM28.1775 43.2382C24.1551 43.2382 20.883 39.9657 20.883 35.9436C20.883 31.9216 24.1555 28.6491 28.1775 28.6491C32.1995 28.6491 35.472 31.9216 35.472 35.9436C35.472 39.9657 32.1995 43.2382 28.1775 43.2382ZM38.9986 35.5627H36.2248C36.0254 31.2967 32.4923 27.8872 28.1775 27.8872C23.8627 27.8872 20.3297 31.2967 20.1302 35.5627H17.3564V30.7116C17.5089 26.652 21.626 24.5866 25.4713 23.9967C26.2917 24.3885 27.2093 24.6079 28.1775 24.6079C29.1457 24.6079 30.0633 24.3881 30.8837 23.9967C34.729 24.5866 38.8461 26.652 38.9986 30.7116V35.5627ZM31.4869 33.4449H29.9014C29.8493 33.4449 29.8136 33.4272 29.7818 33.3863C29.75 33.3451 29.742 33.3061 29.755 33.2559L30.1497 31.7322C30.3362 31.0365 29.9216 30.3188 29.2259 30.1323L29.1323 30.1073C28.446 29.9237 27.7297 30.3314 27.5364 31.017L26.9798 32.9888C26.8942 33.2917 26.7709 33.4452 26.6126 33.4452H24.0937C23.8833 33.4452 23.7127 33.6158 23.7127 33.8262V40.0217C23.7127 40.232 23.8833 40.4026 24.0937 40.4026H31.4872C32.1244 40.4026 32.6426 39.8844 32.6426 39.2472C32.6426 38.9599 32.5367 38.6859 32.3434 38.4727C32.5367 38.2595 32.6426 37.9855 32.6426 37.6982C32.6426 37.4109 32.5367 37.137 32.3434 36.9237C32.5367 36.7105 32.6426 36.4366 32.6426 36.1493C32.6426 35.8619 32.5367 35.588 32.3434 35.3748C32.5367 35.1615 32.6426 34.8876 32.6426 34.6003C32.6426 33.9631 32.124 33.4449 31.4869 33.4449ZM25.5703 39.6404H24.4742V34.2067H25.5703V39.6404ZM30.9227 35.7557H31.6773C31.7037 35.7991 31.7348 35.8406 31.7713 35.8789C31.8414 35.9527 31.8801 36.0488 31.8801 36.1493C31.8801 36.2497 31.8414 36.3459 31.7713 36.4196C31.7348 36.4579 31.7037 36.4995 31.6773 36.5428H30.9227C30.7124 36.5428 30.5418 36.7134 30.5418 36.9237C30.5418 37.1341 30.7124 37.3047 30.9227 37.3047H31.6773C31.7041 37.348 31.7348 37.3896 31.7713 37.4279C31.8414 37.5016 31.8801 37.5978 31.8801 37.6982C31.8801 37.7987 31.8414 37.8948 31.7713 37.9686C31.7348 38.0069 31.7037 38.0484 31.6773 38.0918H30.9227C30.7124 38.0918 30.5418 38.2624 30.5418 38.4727C30.5418 38.683 30.7124 38.8536 30.9227 38.8536H31.6773C31.7037 38.897 31.7348 38.9386 31.7713 38.9769C31.8414 39.0506 31.8801 39.1467 31.8801 39.2472C31.8801 39.464 31.7037 39.6408 31.4865 39.6408H26.3322V34.2071H26.6119C26.9162 34.2071 27.4641 34.0755 27.7124 33.1959L28.2689 31.2241C28.3499 30.9375 28.6484 30.7669 28.9346 30.8435L29.0282 30.8684C29.3181 30.9461 29.4908 31.2454 29.4124 31.5385L29.017 33.0651C28.9448 33.3448 29.0022 33.6245 29.1789 33.8529C29.3557 34.0813 29.6123 34.2071 29.901 34.2071H31.4865C31.7033 34.2071 31.8801 34.3834 31.8801 34.6006C31.8801 34.7011 31.8414 34.7973 31.7713 34.871C31.7348 34.9093 31.7037 34.9508 31.6773 34.9942H30.9227C30.7124 34.9942 30.5418 35.1648 30.5418 35.3751C30.5418 35.5855 30.7124 35.7557 30.9227 35.7557ZM43.2534 39.2974L41.6578 39.2111L41.0825 37.7206C40.9762 37.4449 40.7164 37.2667 40.4211 37.2667C40.1255 37.2667 39.866 37.4449 39.7597 37.7206L39.1844 39.2111L37.5888 39.2974C37.2935 39.3133 37.0438 39.5056 36.9527 39.7864C36.8613 40.0676 36.9505 40.3694 37.18 40.5558L38.42 41.5634L38.0091 43.1077C37.9332 43.3932 38.0387 43.6899 38.2776 43.8634C38.4027 43.9541 38.5483 44 38.6943 44C38.8277 44 38.9614 43.9617 39.0796 43.8851L40.4211 43.0173L41.7626 43.8851C42.0105 44.0455 42.3253 44.0372 42.5649 43.8634C42.8038 43.6896 42.9093 43.3928 42.8334 43.1073L42.4225 41.5634L43.6625 40.5558C43.8916 40.3694 43.9809 40.0672 43.8895 39.7868C43.7984 39.5056 43.5487 39.3133 43.2534 39.2974ZM41.7507 41.1276C41.6343 41.2223 41.5844 41.3762 41.6228 41.5211L42.0619 43.1713L40.6282 42.2439C40.5024 42.1626 40.3401 42.1626 40.2144 42.2439L38.7807 43.1713L39.2198 41.5211C39.2585 41.3762 39.2082 41.2223 39.0918 41.1276L37.7666 40.0506L39.4717 39.9581C39.6213 39.9501 39.7525 39.8547 39.8063 39.7149L40.4211 38.1218L41.0358 39.7149C41.0897 39.8547 41.2209 39.9501 41.3705 39.9581L43.0756 40.0506L41.7507 41.1276ZM18.7655 39.2974L17.1699 39.2111L16.5946 37.7203C16.4883 37.4445 16.2285 37.2664 15.9332 37.2664C15.6376 37.2664 15.3781 37.4445 15.2715 37.7203L14.6961 39.2111L13.1005 39.2974C12.8053 39.3133 12.5559 39.5052 12.4645 39.7864C12.373 40.0676 12.4623 40.3694 12.6918 40.5558L13.9317 41.5634L13.5208 43.1073C13.4449 43.3928 13.5501 43.6896 13.7894 43.8634C13.9144 43.9541 14.06 44 14.2061 44C14.3394 44 14.4731 43.9617 14.5913 43.8851L15.9328 43.0173L17.2744 43.8851C17.5226 44.0459 17.8374 44.0372 18.0763 43.8634C18.3152 43.6896 18.4207 43.3928 18.3448 43.1073L17.9339 41.5634L19.1739 40.5558C19.4034 40.3694 19.4923 40.0672 19.4012 39.7864C19.3098 39.5052 19.0608 39.3133 18.7655 39.2974ZM17.2628 41.1276C17.1464 41.2223 17.0962 41.3762 17.1349 41.5211L17.574 43.1713L16.1403 42.2439C16.0145 42.1626 15.8522 42.1626 15.7265 42.2439L14.2928 43.1713L14.7319 41.5211C14.7706 41.3762 14.7203 41.2223 14.604 41.1276L13.2787 40.0506L14.9838 39.9581C15.1334 39.9501 15.2646 39.8547 15.3185 39.7149L15.9332 38.1218L16.5479 39.7149C16.6018 39.8547 16.733 39.9501 16.8826 39.9581L18.5877 40.0506L17.2628 41.1276ZM37.1804 21.292L38.4204 22.2996L38.0095 23.8439C37.9336 24.1294 38.0391 24.4261 38.278 24.5996C38.403 24.6903 38.5487 24.7362 38.6947 24.7362C38.828 24.7362 38.9617 24.6979 39.0799 24.6212L40.4214 23.7535L41.763 24.6212C42.0109 24.7817 42.3257 24.7734 42.5653 24.5996C42.8042 24.4257 42.9097 24.129 42.8338 23.8435L42.4229 22.2996L43.6629 21.292C43.892 21.1055 43.9813 20.8034 43.8898 20.5226C43.7984 20.2414 43.549 20.0495 43.2538 20.0336L41.6582 19.9472L41.0828 18.4568C40.9766 18.1811 40.7167 18.0029 40.4211 18.0029C40.1255 18.0029 39.866 18.1811 39.7597 18.4568L39.1844 19.9472L37.5888 20.0336C37.2935 20.0495 37.0441 20.2414 36.9527 20.5226C36.8613 20.8038 36.9509 21.1055 37.1804 21.292ZM39.472 20.6946C39.6217 20.6867 39.7529 20.5913 39.8067 20.4514L40.4214 18.8583L41.0362 20.4514C41.09 20.5913 41.2212 20.6867 41.3709 20.6946L43.0759 20.7871L41.7507 21.8641C41.6343 21.9588 41.5844 22.1128 41.6228 22.2577L42.0619 23.9078L40.6282 22.9805C40.5024 22.8992 40.3401 22.8992 40.2144 22.9805L38.7807 23.9078L39.2198 22.2577C39.2585 22.1128 39.2082 21.9588 39.0918 21.8641L37.7666 20.7871L39.472 20.6946ZM12.6925 21.292L13.9325 22.2996L13.5216 23.8435C13.4457 24.129 13.5508 24.4257 13.7901 24.5996C13.9151 24.6903 14.0608 24.7362 14.2068 24.7362C14.3401 24.7362 14.4739 24.6979 14.592 24.6212L15.9336 23.7535L17.2751 24.6212C17.5234 24.7821 17.8381 24.7734 18.077 24.5996C18.3159 24.4257 18.4214 24.129 18.3456 23.8435L17.9346 22.2996L19.1746 21.292C19.4041 21.1055 19.493 20.8038 19.4016 20.5226C19.3101 20.2418 19.0608 20.0495 18.7655 20.0336L17.1699 19.9472L16.5946 18.4565C16.4883 18.1807 16.2285 18.0025 15.9328 18.0025C15.6372 18.0025 15.3777 18.1807 15.2711 18.4565L14.6958 19.9472L13.1002 20.0336C12.8053 20.0495 12.5555 20.2414 12.4641 20.5226C12.3727 20.8038 12.4619 21.1055 12.6914 21.292H12.6925ZM14.9842 20.6946C15.1338 20.6867 15.265 20.5913 15.3188 20.4514L15.9336 18.8583L16.5483 20.4514C16.6022 20.5913 16.7333 20.6867 16.883 20.6946L18.5881 20.7871L17.2628 21.8641C17.1464 21.9588 17.0962 22.1128 17.1349 22.2577L17.574 23.9078L16.1403 22.9805C16.0145 22.8992 15.8522 22.8992 15.7265 22.9805L14.2928 23.9078L14.7319 22.2577C14.7706 22.1128 14.7203 21.9588 14.604 21.8641L13.2787 20.7871L14.9842 20.6946Z" fill="#FE5D38"/>
</svg>
